{"glyphs":{"0":{"ha":979,"x_min":89,"x_max":888,"o":"m 488 128 q 702 413 702 128 q 587 666 702 609 q 488 686 545 686 q 389 665 431 686 q 324 606 349 644 q 277 409 278 531 q 488 128 277 128 m 192 95 q 140 152 192 95 q 89 408 89 210 q 191 720 89 607 q 487 833 294 833 q 784 720 680 833 q 888 407 888 606 q 784 95 888 209 q 488 -20 680 -20 q 192 95 295 -20 z "},"1":{"ha":584,"x_min":59,"x_max":431,"o":"m 235 661 l 113 606 l 59 739 q 218 806 180 791 l 288 817 l 431 817 l 431 0 l 235 0 l 235 661 z "},"2":{"ha":791,"x_min":104,"x_max":698,"o":"m 108 747 q 390 824 242 824 q 656 718 578 825 q 698 578 699 661 q 618 374 698 463 q 546 303 581 332 q 509 272 511 275 q 503 268 506 270 l 367 153 l 684 153 l 684 0 l 104 0 l 104 131 l 392 372 q 489 469 470 437 q 514 559 514 512 q 374 677 514 677 q 161 615 281 677 l 108 747 z "},"3":{"ha":802,"x_min":87,"x_max":697,"o":"m 513 150 q 297 306 513 292 l 297 448 q 480 514 438 448 q 497 576 496 540 q 349 682 497 682 q 230 660 292 682 q 149 633 168 638 l 90 766 q 340 831 220 831 q 575 774 486 830 q 671 578 671 714 q 626 444 671 498 q 509 377 580 389 q 644 297 591 357 q 697 156 697 237 q 671 23 697 76 q 597 -62 644 -30 q 349 -127 501 -127 q 87 -73 197 -127 l 136 68 q 333 18 237 18 q 471 49 430 18 q 513 150 513 79 z "},"4":{"ha":862,"x_min":56,"x_max":789,"o":"m 497 187 l 497 559 l 246 187 l 497 187 m 664 800 l 664 189 l 789 189 l 789 43 l 664 43 l 664 -161 l 497 -161 l 497 43 l 81 43 l 56 165 l 514 838 l 664 800 z "},"5":{"ha":792,"x_min":92,"x_max":714,"o":"m 397 500 q 630 416 546 500 q 714 183 714 332 q 620 -50 714 34 q 377 -133 526 -133 q 92 -69 229 -133 l 123 76 q 362 21 237 21 q 543 183 543 21 q 378 361 543 361 q 200 302 297 361 l 115 376 l 115 807 l 655 807 l 655 663 l 272 663 l 272 462 q 397 500 324 500 z "},"6":{"ha":853,"x_min":77,"x_max":791,"o":"m 459 581 q 699 491 607 581 q 791 249 791 400 q 697 6 791 97 q 437 -84 604 -84 q 174 22 271 -84 q 77 307 77 127 q 289 781 77 609 q 595 927 413 881 l 640 777 q 387 655 479 743 q 310 545 336 608 q 459 581 388 581 m 444 63 q 570 120 530 63 q 611 264 611 178 q 456 439 611 438 q 263 362 340 439 q 262 300 262 342 q 444 63 265 63 z "},"7":{"ha":779,"x_min":94,"x_max":739,"o":"m 739 715 l 337 -146 l 167 -71 l 514 673 l 94 673 l 94 823 l 688 823 l 739 715 z "},"8":{"ha":890,"x_min":101,"x_max":789,"o":"m 292 648 q 334 542 292 579 q 446 504 376 504 q 557 542 517 504 q 598 648 598 580 q 445 773 598 773 q 292 648 292 773 m 284 196 q 284 157 284 196 q 324 87 284 119 q 446 55 363 55 q 566 86 528 55 q 605 195 605 118 q 564 321 605 273 q 446 370 522 370 q 327 321 370 370 q 284 196 284 273 m 212 854 q 235 869 212 854 q 318 901 258 885 q 459 916 377 916 q 613 889 541 916 q 732 802 686 862 q 777 653 777 741 q 727 506 777 565 q 596 429 676 448 q 736 344 683 410 q 789 178 789 278 q 689 -30 789 38 q 447 -94 595 -94 q 168 0 260 -94 q 101 173 101 67 q 154 345 101 278 q 294 429 208 412 q 163 507 214 448 q 113 643 113 566 q 139 772 113 721 q 212 854 165 823 z "},"9":{"ha":871,"x_min":80,"x_max":795,"o":"m 562 241 q 412 201 498 201 q 169 285 258 201 q 80 520 80 369 q 173 763 80 671 q 434 854 267 854 q 698 751 601 854 q 795 464 795 648 q 581 -11 795 168 q 275 -157 455 -115 l 231 -6 q 438 81 351 18 q 562 241 526 144 m 430 707 q 260 510 260 707 q 300 388 260 434 q 401 342 339 342 q 520 354 463 342 q 604 386 577 366 q 612 477 611 457 q 430 707 608 707 z "},"\u0000":{"ha":1389,"x_min":0,"x_max":0,"o":""},"\r":{"ha":467,"x_min":0,"x_max":0,"o":""}," ":{"ha":349,"x_min":0,"x_max":0,"o":""},"!":{"ha":521,"x_min":155,"x_max":380,"o":"m 277 212 q 380 104 380 212 q 277 -5 380 -5 q 187 18 226 -5 q 165 109 165 57 q 277 212 165 212 m 333 315 l 201 315 l 155 1090 l 378 1090 l 333 315 z "},"\"":{"ha":608,"x_min":42,"x_max":593,"o":"m 593 1090 q 556 826 580 977 q 526 624 533 675 l 405 624 l 360 1006 l 353 1090 l 593 1090 m 282 1090 q 246 826 269 977 q 215 624 222 675 l 94 624 l 48 1016 l 42 1090 l 282 1090 z "},"#":{"ha":867,"x_min":118,"x_max":783,"o":"m 508 429 l 528 593 l 396 593 l 375 429 l 508 429 m 364 332 l 328 80 l 195 80 l 231 332 l 118 332 l 118 429 l 240 429 l 260 593 l 125 593 l 125 691 l 273 691 l 307 946 l 438 946 l 406 691 l 543 691 l 573 946 l 707 946 l 675 691 l 783 691 l 783 593 l 664 593 l 643 429 l 777 429 l 777 332 l 631 332 l 597 80 l 464 80 l 499 332 l 364 332 z "},"$":{"ha":886,"x_min":68,"x_max":802,"o":"m 484 142 q 578 182 541 149 q 616 273 616 216 q 584 357 616 329 q 530 394 555 384 q 484 413 506 404 l 484 142 m 410 852 q 293 827 333 850 q 252 743 252 803 q 268 694 252 710 q 293 671 284 679 q 321 656 302 664 q 350 645 340 648 q 381 634 359 641 q 410 625 404 627 l 410 852 m 88 638 q 84 649 88 638 q 74 686 79 659 q 68 756 68 712 q 85 846 68 800 q 131 921 102 891 q 205 969 161 950 q 410 1006 281 1002 l 410 1095 l 484 1095 l 484 1003 q 758 939 661 992 l 712 797 q 607 830 676 810 q 484 850 537 850 l 484 600 q 657 525 606 554 q 802 295 802 442 q 718 70 802 147 q 484 -19 633 -8 l 484 -110 l 410 -110 l 410 -20 q 259 0 322 -20 q 100 58 175 27 l 140 208 q 410 136 304 136 l 410 439 q 363 456 395 445 q 315 473 332 467 q 269 491 298 479 q 222 512 239 503 q 181 536 205 522 q 143 565 157 551 q 113 598 130 578 q 88 638 97 618 z "},"%":{"ha":1169,"x_min":20,"x_max":1190,"o":"m 846 450 q 840 436 846 450 q 829 388 834 421 q 825 315 825 355 q 827 249 825 275 q 837 197 829 223 q 858 155 845 172 q 892 128 870 138 q 943 118 913 118 q 994 128 972 118 q 1028 155 1015 138 q 1048 197 1041 172 q 1061 298 1061 242 q 1056 388 1061 355 q 1039 450 1051 421 q 1003 493 1027 478 q 943 508 979 508 q 883 493 907 508 q 846 450 859 479 m 1190 306 q 1130 95 1190 177 q 945 8 1067 8 q 807 49 863 8 q 700 306 700 125 q 760 537 700 454 q 945 621 819 621 q 1190 306 1190 621 m 166 865 q 160 851 166 865 q 149 804 154 837 q 144 731 144 771 q 147 665 144 691 q 157 614 149 640 q 177 571 165 588 q 212 545 190 555 q 262 534 233 534 q 313 545 292 534 q 348 571 335 555 q 368 614 361 588 q 381 714 381 659 q 376 804 381 770 q 359 865 371 837 q 322 909 347 894 q 262 924 298 924 q 202 909 227 924 q 166 865 178 894 m 265 424 q 35 605 85 425 q 20 722 20 658 q 79 954 20 869 q 266 1038 139 1038 q 451 954 392 1038 q 510 732 510 871 q 449 508 510 593 q 265 424 388 424 m 770 1036 l 887 975 l 413 -22 l 296 33 l 770 1036 z "},"&":{"ha":1180,"x_min":102,"x_max":1167,"o":"m 458 494 q 329 431 376 474 q 282 306 282 387 q 529 122 282 122 q 804 205 755 122 l 458 494 m 865 511 l 865 593 l 1029 593 q 1004 271 1029 425 l 995 225 l 1167 80 l 1082 -24 l 925 108 q 529 -27 829 -27 q 123 166 201 -27 q 102 281 102 220 q 115 387 102 342 q 149 463 127 431 q 202 521 170 494 q 344 599 256 566 q 243 697 287 634 q 200 826 200 760 q 225 938 200 892 q 293 1011 250 983 q 508 1067 380 1067 q 766 966 686 1067 q 808 836 808 913 q 592 558 808 632 l 861 336 q 865 511 865 399 m 481 666 q 616 731 575 692 q 655 824 655 768 q 617 908 655 880 q 512 937 578 937 q 370 823 370 937 q 404 732 370 773 q 481 666 437 690 z "},"'":{"ha":424,"x_min":92,"x_max":332,"o":"m 332 1090 q 296 826 321 996 q 265 624 270 656 l 144 624 l 98 1016 l 92 1090 l 332 1090 z "},"(":{"ha":583,"x_min":138,"x_max":527,"o":"m 435 -183 q 218 85 298 -84 q 138 473 138 254 q 216 865 138 693 q 430 1136 295 1036 l 527 1020 q 377 789 432 931 q 321 473 321 647 q 375 160 321 300 q 524 -66 429 20 l 435 -183 z "},")":{"ha":581,"x_min":64,"x_max":454,"o":"m 157 1137 q 374 869 294 1036 q 454 481 454 702 q 375 90 454 260 q 158 -183 296 -81 l 64 -66 q 215 163 159 20 q 270 479 270 306 q 216 792 270 653 q 67 1020 161 932 l 157 1137 z "},"*":{"ha":677,"x_min":30,"x_max":618,"o":"m 418 1112 l 528 1048 l 428 876 l 618 876 l 618 769 l 430 769 l 532 599 l 422 534 l 328 701 l 233 534 l 123 599 l 226 769 l 30 769 l 30 876 l 228 876 l 127 1050 l 237 1112 l 326 944 l 418 1112 z "},"+":{"ha":728,"x_min":93,"x_max":655,"o":"m 453 329 l 453 88 l 294 88 l 294 329 l 93 329 l 93 478 l 294 478 l 294 718 l 453 718 l 453 478 l 655 478 l 655 329 l 453 329 z "},",":{"ha":448,"x_min":104,"x_max":350,"o":"m 104 253 l 350 253 l 350 35 q 205 -174 350 -112 q 140 -197 176 -186 l 105 -124 q 206 -49 189 -95 q 214 0 214 -28 l 104 0 l 104 253 z "},"-":{"ha":731,"x_min":108,"x_max":624,"o":"m 108 378 l 108 531 l 624 531 l 624 378 l 108 378 z "},".":{"ha":484,"x_min":119,"x_max":366,"o":"m 119 253 l 366 253 l 366 0 l 119 0 l 119 253 z "},"/":{"ha":666,"x_min":88,"x_max":661,"o":"m 497 1168 l 661 1114 l 250 -110 l 88 -57 l 497 1168 z "},":":{"ha":475,"x_min":129,"x_max":377,"o":"m 129 257 l 377 257 l 377 0 l 129 0 l 129 257 m 129 724 l 377 724 l 377 467 l 129 467 l 129 724 z "},";":{"ha":469,"x_min":126,"x_max":373,"o":"m 126 724 l 372 724 l 372 467 l 126 467 l 126 724 m 127 253 l 373 253 l 373 35 q 228 -174 373 -112 q 163 -197 199 -186 l 128 -124 q 229 -49 212 -95 q 237 0 237 -28 l 127 0 l 127 253 z "},"<":{"ha":840,"x_min":121,"x_max":679,"o":"m 146 501 l 651 857 l 679 688 l 301 429 l 679 170 l 651 1 l 121 379 l 146 501 z "},"=":{"ha":754,"x_min":110,"x_max":645,"o":"m 110 189 l 110 322 l 645 322 l 645 189 l 110 189 m 110 408 l 110 541 l 645 541 l 645 408 l 110 408 z "},">":{"ha":825,"x_min":168,"x_max":726,"o":"m 196 1 l 168 174 l 543 429 l 168 684 l 195 857 l 696 505 l 726 379 l 196 1 z "},"?":{"ha":779,"x_min":44,"x_max":707,"o":"m 250 -29 q 193 24 214 -14 q 171 112 171 62 q 221 171 186 148 q 304 193 257 193 q 362 140 340 178 q 384 52 384 102 q 334 -6 370 16 q 250 -29 298 -29 m 179 558 q 228 574 193 563 q 284 591 264 585 q 338 612 304 598 q 393 636 372 625 q 440 666 414 648 q 479 703 465 684 q 514 788 514 747 q 505 851 514 829 q 479 887 495 873 q 439 908 463 900 q 345 922 398 922 q 193 902 291 922 q 95 868 95 883 l 44 1014 q 342 1080 176 1080 q 688 917 621 1080 q 707 813 707 871 q 362 465 707 570 l 362 256 l 179 256 l 179 558 z "},"@":{"ha":1344,"x_min":91,"x_max":1270,"o":"m 981 -13 q 671 -98 875 -98 q 252 36 409 -98 q 133 201 175 101 q 91 426 91 300 q 169 747 91 608 q 387 961 246 886 q 711 1037 528 1037 q 1111 909 955 1037 q 1228 752 1185 847 q 1270 558 1270 658 q 1251 391 1270 458 q 1192 273 1231 323 q 949 168 1111 168 q 850 285 850 168 l 850 327 q 852 370 850 341 q 703 178 804 216 q 607 162 661 162 q 420 238 489 162 q 352 436 352 313 q 458 692 352 591 q 722 794 565 794 q 948 732 893 794 q 977 669 971 707 q 975 612 977 650 l 941 281 q 1074 351 1034 292 q 1114 524 1114 411 q 1005 804 1114 710 q 695 899 897 899 q 373 769 494 899 q 252 436 252 640 q 368 133 252 231 q 690 35 484 35 q 850 64 774 35 q 901 85 879 75 q 924 95 922 94 q 928 97 926 96 q 933 99 931 98 l 981 -13 m 850 673 q 729 687 770 687 q 557 614 618 687 q 497 422 497 542 q 527 319 497 358 q 612 279 557 279 q 708 304 667 279 q 774 367 749 329 q 815 460 798 404 q 850 673 842 547 z "},"A":{"ha":1026,"x_min":29,"x_max":996,"o":"m 635 1090 l 996 0 l 788 0 l 708 250 l 317 250 l 238 0 l 29 0 l 387 1090 l 635 1090 m 345 350 l 681 350 l 515 871 l 345 350 z "},"B":{"ha":977,"x_min":106,"x_max":921,"o":"m 901 426 q 921 310 921 376 q 904 194 921 243 q 856 111 888 144 q 783 56 823 78 q 685 22 742 34 q 445 0 583 0 l 106 0 l 106 1090 l 378 1090 q 820 975 718 1089 q 876 817 876 913 q 644 583 876 610 q 901 426 851 555 m 719 309 q 719 338 719 309 q 705 401 719 366 q 669 456 692 435 q 610 488 647 476 q 441 508 548 509 l 313 508 l 313 137 l 424 137 q 612 155 559 137 q 690 209 669 175 q 719 309 719 252 m 675 720 q 694 795 694 753 q 684 863 694 838 q 653 904 673 888 q 610 930 633 920 q 552 945 586 940 q 418 953 493 953 l 313 953 l 313 637 l 441 637 q 675 720 630 637 z "},"C":{"ha":895,"x_min":71,"x_max":861,"o":"m 558 957 q 287 667 323 956 q 279 536 279 608 q 558 130 279 130 q 804 205 697 130 l 861 58 q 726 -2 814 20 q 530 -23 637 -23 q 331 18 422 -23 q 183 134 239 58 q 71 540 71 285 q 184 947 71 792 q 333 1067 241 1024 q 532 1109 425 1109 q 854 1038 751 1109 l 800 890 q 558 957 696 957 z "},"D":{"ha":1056,"x_min":106,"x_max":985,"o":"m 448 137 q 703 248 627 137 q 774 543 774 353 q 709 842 774 739 q 455 953 639 953 l 313 953 l 313 137 l 448 137 m 458 1090 q 855 954 726 1090 q 985 543 985 817 q 463 0 985 0 l 106 0 l 106 1090 l 458 1090 z "},"E":{"ha":869,"x_min":106,"x_max":825,"o":"m 106 0 l 106 1090 l 817 1090 l 817 953 l 313 953 l 313 631 l 753 631 l 753 505 l 313 505 l 313 135 l 825 135 l 825 0 l 106 0 z "},"F":{"ha":827,"x_min":106,"x_max":808,"o":"m 313 0 l 106 0 l 106 1090 l 808 1090 l 808 953 l 313 953 l 313 627 l 755 627 l 755 501 l 313 501 l 313 0 z "},"G":{"ha":1059,"x_min":71,"x_max":963,"o":"m 545 130 q 780 235 734 130 l 780 460 l 518 460 l 518 588 l 963 588 l 963 0 l 840 0 l 805 111 q 705 10 779 43 q 532 -23 631 -23 q 357 4 433 -23 q 229 80 281 31 q 140 199 175 129 q 71 536 71 335 q 194 952 71 800 q 576 1109 321 1109 q 899 1020 774 1109 l 836 880 q 576 957 704 957 q 296 704 350 957 q 280 536 279 630 q 545 130 280 130 z "},"H":{"ha":1086,"x_min":106,"x_max":979,"o":"m 772 503 l 313 503 l 313 0 l 106 0 l 106 1090 l 313 1090 l 313 628 l 772 628 l 772 1090 l 979 1090 l 979 0 l 772 0 l 772 503 z "},"I":{"ha":574,"x_min":59,"x_max":517,"o":"m 185 102 l 185 986 l 59 986 l 59 1090 l 517 1090 l 517 986 l 389 986 l 389 102 l 517 102 l 517 0 l 59 0 l 59 102 l 185 102 z "},"J":{"ha":560,"x_min":26,"x_max":454,"o":"m 26 74 q 157 114 111 87 q 248 342 248 166 l 248 1090 l 454 1090 l 454 352 q 366 47 454 145 q 79 -60 277 -50 l 26 74 z "},"K":{"ha":996,"x_min":106,"x_max":983,"o":"m 313 0 l 106 0 l 106 1090 l 313 1090 l 313 607 l 408 607 l 724 1090 l 942 1090 l 572 549 l 983 0 l 751 0 l 402 484 l 313 484 l 313 0 z "},"L":{"ha":825,"x_min":106,"x_max":801,"o":"m 106 0 l 106 1090 l 313 1090 l 313 137 l 801 137 l 801 0 l 106 0 z "},"M":{"ha":1348,"x_min":106,"x_max":1242,"o":"m 287 850 l 287 0 l 106 0 l 106 1090 l 378 1090 l 671 227 l 970 1090 l 1242 1090 l 1242 0 l 1061 0 l 1061 850 l 773 0 l 576 0 l 287 850 z "},"N":{"ha":1120,"x_min":106,"x_max":1014,"o":"m 787 0 l 296 831 l 296 0 l 106 0 l 106 1090 l 342 1090 l 824 268 l 824 1090 l 1014 1090 l 1014 0 l 787 0 z "},"O":{"ha":1093,"x_min":71,"x_max":1022,"o":"m 559 1109 q 761 1069 669 1109 q 909 955 852 1029 q 1022 549 1022 808 q 727 3 1023 104 q 533 -24 647 -24 q 327 18 420 -24 q 179 138 235 60 q 71 555 71 290 q 236 1010 71 869 q 559 1109 353 1109 m 734 874 q 720 893 734 874 q 658 934 705 911 q 548 957 611 957 q 436 935 484 957 q 359 875 389 912 q 312 783 330 838 q 280 541 281 687 q 359 212 280 311 q 546 130 425 130 q 711 188 652 130 q 792 337 770 246 q 813 520 813 429 q 806 669 813 612 q 782 782 800 727 q 734 874 764 838 z "},"P":{"ha":943,"x_min":106,"x_max":907,"o":"m 406 1090 q 810 985 693 1090 q 907 743 905 901 q 614 422 907 475 q 385 405 518 404 l 313 405 l 313 0 l 106 0 l 106 1090 l 406 1090 m 699 743 q 679 844 699 800 q 618 911 659 888 q 404 953 545 953 l 313 953 l 313 536 l 379 536 q 636 591 564 536 q 699 743 699 640 z "},"Q":{"ha":1097,"x_min":71,"x_max":1026,"o":"m 183 952 q 212 990 183 952 q 332 1068 240 1027 q 547 1109 423 1109 q 764 1069 670 1109 q 913 954 857 1029 q 1026 557 1026 804 q 664 -12 1026 54 l 888 -178 l 783 -291 l 458 -16 q 94 334 167 21 q 71 551 71 429 q 99 774 71 673 q 183 952 127 876 m 817 543 q 736 874 817 772 q 549 957 671 957 q 287 671 321 958 q 280 544 280 614 q 287 415 280 473 q 312 302 294 357 q 359 212 330 248 q 549 130 425 130 q 810 416 777 130 q 817 543 817 473 z "},"R":{"ha":992,"x_min":106,"x_max":915,"o":"m 645 662 q 686 714 670 682 q 701 784 701 747 q 695 843 701 821 q 676 882 689 866 q 649 911 664 899 q 611 930 634 923 q 568 943 588 938 q 517 949 547 947 q 406 953 466 953 l 313 953 l 313 610 l 412 610 q 645 662 579 610 m 911 814 q 829 615 911 680 q 603 546 747 550 q 892 391 834 519 q 915 268 915 339 l 915 0 l 709 0 l 709 282 q 591 463 709 427 q 411 482 527 482 l 313 482 l 313 0 l 106 0 l 106 1090 l 408 1090 q 714 1059 608 1090 q 857 977 810 1031 q 911 814 911 913 z "},"S":{"ha":899,"x_min":58,"x_max":845,"o":"m 753 878 q 620 935 697 912 q 481 957 543 957 q 384 952 419 957 q 317 933 349 947 q 252 826 252 905 q 280 753 252 779 q 355 710 307 727 l 589 621 q 825 420 775 549 q 845 292 845 368 q 816 154 845 216 q 733 53 787 91 q 444 -23 627 -23 q 86 71 260 -23 l 123 219 q 418 133 269 150 q 474 130 448 130 q 648 273 648 130 q 614 373 648 336 q 520 432 581 410 l 280 528 q 58 811 58 615 q 171 1039 57 964 q 441 1109 277 1109 q 797 1019 644 1109 l 753 878 z "},"T":{"ha":823,"x_min":13,"x_max":808,"o":"m 516 953 l 516 0 l 309 0 l 309 953 l 13 953 l 13 1090 l 808 1090 l 808 953 l 516 953 z "},"U":{"ha":1078,"x_min":95,"x_max":981,"o":"m 302 494 q 328 262 302 332 q 399 164 353 194 q 538 130 453 129 q 720 206 669 130 q 762 313 754 256 q 773 494 773 393 l 773 1090 l 981 1090 l 981 497 q 746 12 981 109 q 540 -23 661 -23 q 332 12 419 -23 q 194 114 245 46 q 95 497 95 244 l 95 1090 l 302 1090 l 302 494 z "},"V":{"ha":958,"x_min":29,"x_max":929,"o":"m 481 260 l 734 1090 l 929 1090 l 589 0 l 370 0 l 29 1090 l 223 1090 l 481 260 z "},"W":{"ha":1375,"x_min":28,"x_max":1347,"o":"m 806 1090 l 973 224 l 1147 1090 l 1347 1090 l 1111 -1 l 855 -1 l 688 907 l 509 0 l 263 0 l 28 1090 l 228 1090 l 401 224 l 568 1090 l 806 1090 z "},"X":{"ha":932,"x_min":13,"x_max":919,"o":"m 705 1090 l 918 1090 l 582 546 l 919 0 l 696 0 l 466 377 l 236 0 l 13 0 l 350 546 l 14 1090 l 227 1090 l 466 698 l 705 1090 z "},"Y":{"ha":876,"x_min":-13,"x_max":888,"o":"m 680 1090 l 888 1090 l 535 349 l 535 0 l 338 0 l 338 349 l -13 1090 l 195 1090 l 437 563 l 680 1090 z "},"Z":{"ha":848,"x_min":53,"x_max":798,"o":"m 796 953 l 279 137 l 798 137 l 798 0 l 53 0 l 53 145 l 572 953 l 53 953 l 53 1090 l 796 1090 l 796 953 z "},"[":{"ha":771,"x_min":169,"x_max":663,"o":"m 663 1090 l 663 953 l 361 953 l 361 137 l 663 137 l 663 0 l 169 0 l 169 1090 l 663 1090 z "},"\\":{"ha":774,"x_min":101,"x_max":687,"o":"m 687 -47 l 509 -108 l 101 1117 l 279 1175 l 687 -47 z "},"]":{"ha":787,"x_min":140,"x_max":634,"o":"m 634 1090 l 634 0 l 140 0 l 140 137 l 441 137 l 441 953 l 140 953 l 140 1090 l 634 1090 z "},"^":{"ha":903,"x_min":197,"x_max":705,"o":"m 517 770 l 705 374 l 555 353 l 450 616 l 346 353 l 197 374 l 385 770 l 517 770 z "},"_":{"ha":817,"x_min":62,"x_max":735,"o":"m 62 -71 l 62 78 l 735 78 l 735 -71 l 62 -71 z "},"`":{"ha":572,"x_min":123,"x_max":446,"o":"m 123 526 l 319 611 l 446 186 l 361 148 l 123 526 z "},"a":{"ha":844,"x_min":58,"x_max":753,"o":"m 555 481 q 522 653 555 616 q 418 689 490 689 q 162 618 283 689 l 109 742 q 423 824 247 824 q 682 731 608 823 q 753 452 753 643 l 753 0 l 601 0 l 574 111 q 476 16 532 47 q 335 -16 421 -16 q 131 50 203 -16 q 58 244 58 117 q 240 480 58 426 q 358 498 293 496 q 555 481 464 498 m 555 380 l 509 385 l 479 388 q 437 389 458 389 q 389 387 416 389 q 335 375 361 384 q 293 353 309 367 q 256 259 256 321 q 386 120 256 120 q 479 142 439 120 q 555 203 519 164 l 555 380 z "},"b":{"ha":899,"x_min":104,"x_max":846,"o":"m 302 198 q 383 140 341 159 q 478 120 425 120 q 565 143 532 120 q 616 208 598 165 q 646 412 647 284 q 607 633 646 571 q 505 689 552 682 q 393 667 438 689 q 302 604 349 645 l 302 198 m 302 724 q 524 824 394 824 q 795 654 708 824 q 846 418 846 553 q 707 44 846 157 q 515 -16 633 -16 q 284 118 353 -16 l 245 0 l 104 0 l 104 1131 l 302 1161 l 302 724 z "},"c":{"ha":749,"x_min":58,"x_max":706,"o":"m 706 62 q 443 -16 597 -16 q 157 95 257 -16 q 58 397 58 205 q 102 617 58 521 q 235 768 146 713 q 445 824 324 824 q 706 749 604 824 l 663 618 q 465 689 578 689 q 304 610 351 684 q 257 403 257 536 q 469 120 257 119 q 575 139 530 120 q 663 192 620 157 l 706 62 z "},"d":{"ha":897,"x_min":58,"x_max":798,"o":"m 543 646 q 531 653 543 646 q 482 675 519 661 q 408 689 444 689 q 347 678 372 689 q 306 646 321 667 q 279 600 290 624 q 263 540 269 575 q 254 417 254 477 q 258 319 254 357 q 273 243 262 281 q 301 178 283 203 q 420 120 341 119 q 600 199 534 120 l 600 604 q 543 646 567 630 m 103 166 q 91 195 103 166 q 68 287 79 223 q 58 429 58 351 q 77 577 58 506 q 135 703 97 648 q 232 791 172 759 q 367 824 292 824 q 600 717 515 824 l 600 1131 l 798 1161 l 798 0 l 656 0 l 616 118 q 524 22 587 60 q 387 -16 462 -16 q 257 7 313 -16 q 164 70 201 30 q 103 166 127 109 z "},"e":{"ha":816,"x_min":58,"x_max":760,"o":"m 470 120 q 583 138 535 120 q 676 191 630 155 l 721 57 q 454 -16 598 -16 q 162 90 267 -16 q 58 385 58 197 q 150 700 58 580 q 433 824 245 824 q 675 728 591 824 q 760 465 760 631 q 758 364 760 413 l 260 364 q 314 184 262 248 q 470 120 366 120 m 595 477 q 437 689 595 686 q 308 626 351 686 q 260 468 264 565 l 595 468 l 595 477 z "},"f":{"ha":579,"x_min":16,"x_max":573,"o":"m 556 985 q 445 1013 481 1013 q 355 932 374 1013 q 347 808 347 895 l 347 804 l 559 804 l 559 714 l 347 714 l 347 0 l 149 0 l 149 714 l 16 714 l 16 804 l 149 804 q 281 1135 149 1069 q 414 1160 332 1160 q 573 1126 496 1160 l 556 985 z "},"g":{"ha":868,"x_min":66,"x_max":859,"o":"m 225 -108 q 395 -203 225 -203 q 591 -180 549 -202 q 637 -146 627 -161 q 656 -79 656 -112 q 645 -26 656 -47 q 613 7 634 -5 q 568 27 591 20 q 510 38 545 35 q 449 43 475 41 q 384 45 422 44 q 324 47 345 45 q 254 -17 283 24 q 225 -108 225 -58 m 573 571 q 573 604 573 571 q 537 663 573 636 q 427 690 501 690 q 315 661 352 690 q 277 570 277 631 q 367 408 277 454 l 450 417 q 540 466 507 427 q 573 571 573 506 m 617 779 q 829 819 702 819 l 859 819 l 859 684 l 690 684 q 739 576 739 621 q 668 386 739 452 q 471 304 597 320 l 249 275 l 262 184 l 452 176 q 716 122 636 168 q 815 11 792 80 q 828 -86 829 -28 q 804 -193 828 -144 q 742 -272 781 -242 q 646 -319 703 -301 q 395 -350 547 -350 q 126 -277 202 -350 q 66 -107 66 -220 q 205 72 66 6 q 119 122 144 81 q 90 241 94 163 q 130 331 91 304 q 198 364 168 357 q 254 377 229 371 q 144 436 185 386 q 103 564 103 486 q 189 758 103 692 q 413 824 275 824 q 617 779 551 824 z "},"h":{"ha":916,"x_min":104,"x_max":823,"o":"m 494 689 q 302 612 380 689 l 302 0 l 104 0 l 104 1127 l 302 1162 l 302 711 q 405 796 350 768 q 538 824 459 824 q 673 799 617 824 q 761 727 728 774 q 823 472 823 635 l 823 0 l 625 0 l 625 482 q 559 673 625 634 q 494 689 532 689 z "},"i":{"ha":440,"x_min":109,"x_max":332,"o":"m 121 0 l 121 804 l 317 804 l 317 0 l 121 0 m 332 1070 q 332 1046 332 1070 q 300 990 332 1022 q 220 958 269 958 q 140 989 171 958 q 109 1069 109 1021 q 141 1151 109 1118 q 220 1183 172 1183 q 300 1151 269 1183 q 332 1070 332 1118 z "},"j":{"ha":445,"x_min":1,"x_max":348,"o":"m 317 988 q 302 972 317 988 q 239 956 287 956 q 160 987 191 956 q 130 1069 130 1020 q 160 1149 130 1118 q 239 1181 191 1181 q 317 1149 286 1181 q 348 1069 348 1118 q 317 988 348 1020 m 1 -117 q 108 -3 77 -71 q 140 186 140 66 l 140 804 l 339 804 l 339 127 q 262 -119 339 -20 q 60 -247 185 -218 l 1 -117 z "},"k":{"ha":897,"x_min":104,"x_max":873,"o":"m 302 0 l 104 0 l 104 1131 l 302 1162 l 302 479 l 639 804 l 859 804 l 494 448 l 873 0 l 647 0 l 373 359 l 302 296 l 302 0 z "},"l":{"ha":421,"x_min":111,"x_max":310,"o":"m 310 0 l 111 0 l 111 1131 l 310 1161 l 310 0 z "},"m":{"ha":1346,"x_min":104,"x_max":1254,"o":"m 1055 536 q 956 688 1055 688 q 806 623 872 688 q 777 594 795 612 l 777 0 l 578 0 l 578 541 q 556 649 578 613 q 473 686 533 686 q 302 582 387 686 l 302 0 l 104 0 l 104 804 l 246 804 l 286 673 q 522 824 357 824 q 743 691 687 824 q 1006 824 836 824 q 1193 743 1131 824 q 1254 524 1254 663 l 1254 0 l 1055 0 l 1055 536 z "},"n":{"ha":903,"x_min":104,"x_max":811,"o":"m 612 510 q 585 644 612 600 q 493 689 557 689 q 380 662 430 689 q 302 597 330 635 l 302 0 l 104 0 l 104 804 l 254 804 l 288 690 q 388 787 324 749 q 534 824 452 824 q 746 742 681 824 q 811 500 811 659 l 811 0 l 612 0 l 612 510 z "},"o":{"ha":881,"x_min":56,"x_max":820,"o":"m 625 399 q 439 685 625 685 q 252 399 252 685 q 439 114 252 114 q 621 311 597 114 q 625 399 625 350 m 438 821 q 723 708 627 821 q 820 399 820 596 q 723 90 820 201 q 438 -21 627 -21 q 153 91 250 -21 q 56 399 56 202 q 153 708 56 595 q 438 821 250 821 z "},"p":{"ha":903,"x_min":104,"x_max":846,"o":"m 648 391 q 624 593 648 530 q 556 677 598 656 q 487 689 532 689 q 390 664 441 689 q 302 601 339 639 l 302 213 q 495 120 401 120 q 648 391 648 120 m 799 655 q 812 628 799 655 q 835 538 824 602 q 846 392 846 474 q 825 235 846 309 q 765 104 805 161 q 661 16 726 47 q 513 -16 596 -16 q 302 95 386 -16 l 302 -296 l 104 -302 l 104 804 l 254 804 l 291 686 q 380 787 322 749 q 514 824 439 824 q 645 804 590 824 q 737 746 700 783 q 799 655 774 709 z "},"q":{"ha":897,"x_min":58,"x_max":798,"o":"m 257 484 q 254 399 254 446 q 257 316 254 353 q 270 241 260 280 q 297 178 281 203 q 410 120 335 119 q 600 209 508 120 l 600 590 q 416 689 522 689 q 257 484 275 689 m 58 397 q 388 824 58 824 q 605 684 531 824 l 634 804 l 798 804 l 798 -300 l 600 -307 l 600 96 q 384 -16 506 -16 q 106 153 189 -16 q 58 397 57 252 z "},"r":{"ha":578,"x_min":104,"x_max":555,"o":"m 480 648 q 302 570 395 648 l 302 0 l 104 0 l 104 804 l 269 804 l 294 674 q 381 772 332 737 q 507 807 431 807 q 555 806 523 807 l 555 640 q 480 648 536 648 z "},"s":{"ha":726,"x_min":62,"x_max":673,"o":"m 354 120 q 489 225 489 120 q 457 286 490 263 q 392 319 429 307 l 234 380 q 75 517 106 427 q 62 606 62 553 q 86 702 62 658 q 152 772 110 745 q 362 824 235 824 q 524 805 443 824 q 649 752 606 785 l 604 625 q 499 670 568 652 q 370 689 431 689 q 237 601 237 689 q 262 549 237 567 q 319 522 291 528 l 450 473 q 626 369 578 427 q 673 242 673 313 q 649 122 673 171 q 583 43 625 73 q 363 -16 500 -16 q 195 5 277 -16 q 66 61 113 26 l 111 191 q 220 141 147 162 q 354 120 292 120 z "},"t":{"ha":623,"x_min":11,"x_max":603,"o":"m 603 49 q 375 -16 500 -16 q 175 114 221 -16 q 149 309 148 189 l 149 715 l 11 715 l 11 804 l 153 804 l 160 1083 l 346 1131 l 346 804 l 573 804 l 573 715 l 346 715 l 346 256 q 362 155 346 189 q 426 120 378 120 q 487 134 460 120 q 518 151 513 148 q 551 170 541 163 l 603 49 z "},"u":{"ha":889,"x_min":91,"x_max":786,"o":"m 307 183 q 317 166 307 183 q 352 137 327 149 q 423 125 377 125 q 587 201 509 125 l 587 804 l 786 804 l 786 0 l 644 0 l 604 122 q 521 21 576 59 q 385 -16 465 -16 q 162 65 234 -16 q 91 308 91 147 l 91 804 l 288 804 l 288 297 q 307 183 288 216 z "},"v":{"ha":799,"x_min":14,"x_max":787,"o":"m 286 0 l 14 804 l 219 804 l 401 180 l 579 804 l 787 804 l 513 0 l 286 0 z "},"w":{"ha":1108,"x_min":14,"x_max":1096,"o":"m 553 568 l 420 0 l 226 0 l 14 804 l 200 804 l 327 186 l 463 804 l 647 804 l 781 186 l 912 804 l 1096 804 l 884 0 l 688 0 l 553 568 z "},"x":{"ha":800,"x_min":22,"x_max":779,"o":"m 245 0 l 26 0 l 302 404 l 22 804 l 245 804 l 402 540 l 559 804 l 779 804 l 503 404 l 774 0 l 558 0 l 402 274 l 245 0 z "},"y":{"ha":801,"x_min":14,"x_max":789,"o":"m 14 804 l 214 804 l 425 224 l 587 804 l 789 804 l 505 -24 q 348 -262 446 -191 q 153 -321 267 -321 l 98 -187 q 258 -125 206 -174 q 338 24 310 -77 l 14 804 z "},"z":{"ha":720,"x_min":68,"x_max":652,"o":"m 81 669 l 81 804 l 648 804 l 648 663 l 276 135 l 652 135 l 652 0 l 68 0 l 68 142 l 450 669 l 81 669 z "},"{":{"ha":581,"x_min":86,"x_max":492,"o":"m 492 920 q 403 873 426 920 q 380 714 381 827 q 347 536 380 600 q 239 450 315 473 q 348 362 315 426 q 382 192 380 298 q 389 70 382 94 q 403 28 395 45 q 422 1 411 11 q 492 -20 450 -20 l 492 -144 q 282 -70 346 -144 q 224 37 239 -20 q 196 185 202 121 q 187 270 190 250 q 177 314 184 290 q 159 352 170 338 q 86 385 134 385 l 86 515 q 187 625 165 515 q 202 724 197 673 q 235 907 217 870 q 492 1046 304 1046 l 492 920 z "},"|":{"ha":510,"x_min":167,"x_max":344,"o":"m 167 1159 l 344 1159 l 344 -92 l 167 -92 l 167 1159 z "},"}":{"ha":582,"x_min":101,"x_max":506,"o":"m 353 451 q 244 537 277 473 q 211 709 212 600 q 204 831 211 808 q 190 872 198 854 q 170 899 182 890 q 101 921 142 921 l 101 1046 q 311 971 247 1046 q 369 865 354 920 q 397 718 391 783 q 406 632 403 652 q 415 588 408 612 q 433 550 422 564 q 506 516 458 516 l 506 386 q 405 277 428 386 q 389 178 395 228 q 357 -5 374 33 q 101 -144 288 -144 l 101 -20 q 205 87 187 -20 q 216 184 214 134 q 245 365 224 325 q 353 451 279 428 z "},"~":{"ha":750,"x_min":99,"x_max":676,"o":"m 676 398 q 612 222 676 277 q 529 194 577 194 q 443 209 481 194 q 361 250 404 224 q 274 290 295 290 q 243 278 253 290 q 229 206 229 260 l 99 206 q 252 418 99 418 q 380 372 318 418 q 502 325 442 325 q 534 343 527 325 q 541 398 541 361 l 676 398 z "}," ":{"ha":415,"x_min":0,"x_max":0,"o":""},"¡":{"ha":547,"x_min":169,"x_max":392,"o":"m 392 -1 l 169 -1 l 216 766 l 347 766 l 392 -1 m 290 857 q 204 881 232 857 q 176 963 176 905 q 203 1048 176 1021 q 290 1074 230 1074 q 392 960 392 1074 q 290 857 392 857 z "},"¢":{"ha":768,"x_min":71,"x_max":720,"o":"m 427 676 q 271 407 271 649 q 427 134 271 165 l 427 676 m 716 55 q 523 -7 601 -7 l 523 -104 l 427 -104 l 427 -12 q 164 108 258 -3 q 71 401 71 219 q 166 697 71 583 q 427 819 262 810 l 427 937 l 523 937 l 523 815 q 720 747 623 804 l 677 617 q 608 654 651 638 q 523 675 566 671 l 523 130 q 580 140 559 132 q 607 150 600 148 q 627 159 613 153 q 643 168 639 165 q 676 185 669 182 l 716 55 z "},"£":{"ha":810,"x_min":127,"x_max":738,"o":"m 217 491 q 139 670 139 563 q 334 899 138 852 q 460 913 391 913 q 738 832 612 913 l 672 702 q 473 765 569 765 q 323 646 323 765 q 355 537 323 584 q 389 494 366 521 l 674 494 l 674 404 l 396 404 q 371 261 396 324 q 303 135 346 199 l 718 135 l 718 0 l 136 0 l 136 131 q 205 253 177 178 q 234 404 234 327 l 127 404 l 127 491 l 217 491 z "},"¤":{"ha":956,"x_min":96,"x_max":871,"o":"m 640 431 q 474 378 562 378 q 318 421 386 378 l 184 288 l 96 376 l 229 508 q 180 671 180 583 q 233 838 180 759 l 96 975 l 184 1063 l 321 926 q 490 980 400 980 q 652 932 580 980 l 784 1063 l 871 975 l 739 843 q 783 686 783 775 q 728 519 783 597 l 871 376 l 784 288 l 640 431 m 478 490 q 518 490 478 490 q 613 547 557 490 q 670 683 670 605 q 617 813 670 760 q 486 867 564 867 q 350 810 407 867 q 293 674 293 753 q 347 542 293 595 q 478 490 400 490 z "},"¥":{"ha":882,"x_min":-6,"x_max":898,"o":"m 684 1089 l 898 1089 l 604 510 l 760 510 l 760 431 l 571 431 l 545 351 l 760 351 l 760 274 l 544 274 l 544 0 l 347 0 l 347 274 l 129 274 l 129 351 l 346 351 l 321 431 l 129 431 l 129 510 l 286 510 l -6 1089 l 205 1089 l 444 553 l 684 1089 z "},"¦":{"ha":490,"x_min":162,"x_max":342,"o":"m 162 1127 l 342 1127 l 342 627 l 162 627 l 162 1127 m 162 438 l 342 438 l 342 -62 l 162 -62 l 162 438 z "},"§":{"ha":794,"x_min":106,"x_max":694,"o":"m 255 520 q 255 495 255 520 q 292 452 255 470 q 378 434 329 434 q 450 437 427 434 q 494 449 473 441 q 540 517 540 467 q 520 571 540 551 q 470 597 500 591 q 403 603 441 603 q 342 600 365 603 q 298 587 319 595 q 255 520 255 570 m 255 691 q 106 871 106 743 q 194 1040 107 989 q 389 1087 275 1087 q 544 1059 465 1087 q 663 990 623 1031 l 609 869 q 510 924 568 901 q 411 947 453 947 q 352 946 370 947 q 315 940 334 945 q 283 926 296 935 q 256 869 256 907 q 275 828 256 841 q 319 805 300 812 q 412 771 338 798 q 502 738 486 744 q 544 721 518 732 q 584 700 569 710 q 619 676 600 690 q 650 647 638 663 q 672 612 661 631 q 692 512 692 575 q 652 408 692 448 q 548 353 612 368 q 656 277 618 326 q 694 146 694 229 q 568 -42 694 12 q 405 -73 496 -73 q 235 -45 313 -73 q 108 23 156 -17 l 165 151 q 259 94 196 120 q 386 67 321 67 q 493 89 450 67 q 535 165 535 110 q 503 235 535 213 q 452 261 477 253 q 424 270 427 269 l 314 308 q 146 398 186 350 q 106 521 106 448 q 147 636 106 595 q 255 691 188 678 z "},"¨":{"ha":781,"x_min":74,"x_max":711,"o":"m 298 281 q 298 256 298 281 q 266 200 298 232 q 185 168 234 168 q 105 200 136 168 q 74 280 74 231 q 105 361 74 330 q 185 393 136 393 q 266 361 234 393 q 298 281 298 330 m 711 281 q 711 257 711 281 q 679 200 711 233 q 598 168 647 168 q 518 200 549 168 q 488 280 488 231 q 519 361 488 330 q 598 393 550 393 q 679 361 647 393 q 711 281 711 329 z "},"©":{"ha":1442,"x_min":101,"x_max":1347,"o":"m 249 553 q 376 203 249 336 q 716 70 503 70 q 968 131 858 70 q 1139 302 1078 192 q 1200 551 1200 412 q 1139 802 1200 691 q 969 976 1078 913 q 724 1039 861 1039 q 478 976 587 1039 q 309 801 370 912 q 249 553 249 690 m 941 726 q 735 781 834 781 q 592 723 636 781 q 548 552 548 665 q 592 382 548 439 q 741 326 636 326 q 882 356 814 326 q 945 387 905 366 l 945 261 q 844 218 887 232 q 749 204 802 204 q 492 296 580 204 q 405 555 405 388 q 492 813 405 722 q 743 904 580 904 q 941 849 837 904 l 941 726 m 1266 233 q 1225 163 1266 233 q 1042 15 1185 92 q 719 -62 899 -62 q 398 17 539 -62 q 179 235 257 95 q 101 555 101 376 q 148 805 101 690 q 278 1000 195 920 q 475 1126 360 1080 q 724 1171 591 1171 q 973 1125 857 1171 q 1171 997 1089 1078 q 1300 802 1253 916 q 1347 555 1347 687 q 1266 233 1347 374 z "},"ª":{"ha":845,"x_min":140,"x_max":651,"o":"m 178 1053 q 281 1082 204 1053 q 406 1111 358 1111 q 597 1046 543 1111 q 651 838 651 982 l 651 465 l 572 465 l 554 562 q 544 550 552 562 q 510 507 520 518 q 351 453 448 453 q 197 504 254 453 q 140 653 140 555 q 207 802 140 751 q 399 853 273 853 q 542 826 524 853 l 542 865 q 515 989 542 951 q 402 1026 488 1026 q 231 986 315 1026 l 214 979 l 178 1053 m 249 659 q 279 559 249 588 q 368 530 309 530 q 530 598 471 530 q 542 612 542 612 l 542 774 q 422 785 467 785 q 249 659 249 785 m 183 390 l 647 390 l 647 302 l 183 302 l 183 390 z "},"«":{"ha":1190,"x_min":82,"x_max":1086,"o":"m 770 399 l 1086 203 l 1086 5 l 584 321 l 584 473 l 1086 787 l 1086 590 l 770 399 m 269 399 l 585 203 l 585 5 l 82 321 l 82 473 l 585 787 l 585 590 l 269 399 z "},"¬":{"ha":941,"x_min":52,"x_max":837,"o":"m 52 521 l 52 671 l 837 671 l 837 188 l 709 188 l 709 521 l 52 521 z "},"­":{"ha":704,"x_min":107,"x_max":567,"o":"m 107 378 l 107 524 l 567 524 l 567 378 l 107 378 z "},"®":{"ha":935,"x_min":34,"x_max":919,"o":"m 861 592 q 831 544 861 592 q 702 442 802 495 q 476 389 601 389 q 250 441 351 389 q 92 591 149 494 q 34 811 34 688 q 92 1031 34 934 q 251 1182 150 1128 q 460 1236 351 1236 q 651 1204 569 1236 q 791 1117 732 1173 q 885 983 850 1062 q 919 797 919 904 q 861 592 919 689 m 132 810 q 228 565 132 659 q 475 472 323 472 q 723 566 627 472 q 820 811 820 661 q 724 1056 820 961 q 475 1150 627 1150 q 228 1056 323 1150 q 132 810 132 961 m 444 967 l 425 967 l 425 846 l 469 846 q 493 851 486 846 q 500 871 500 857 q 543 885 528 875 q 557 912 557 895 q 552 939 557 930 q 537 952 547 947 q 518 961 528 958 q 492 965 508 964 q 444 967 469 967 m 627 977 q 644 903 644 951 q 615 829 644 856 q 529 792 587 803 l 650 618 l 570 578 l 449 777 l 423 777 l 423 592 l 339 592 l 339 1036 l 433 1036 q 627 977 586 1036 z "},"¯":{"ha":680,"x_min":66,"x_max":529,"o":"m 66 146 l 529 146 l 529 66 l 66 66 l 66 146 z "},"°":{"ha":555,"x_min":83,"x_max":467,"o":"m 376 771 q 357 791 376 771 q 276 810 337 810 q 175 771 215 810 q 135 671 135 732 q 175 571 135 610 q 276 532 214 532 q 377 571 338 532 q 416 671 416 610 q 376 771 416 732 m 273 488 q 233 488 273 488 q 138 541 192 488 q 83 673 83 594 q 139 803 83 752 q 276 854 195 854 q 413 802 358 854 q 467 670 467 751 q 411 538 467 589 q 273 488 355 488 z "},"±":{"ha":785,"x_min":131,"x_max":693,"o":"m 151 -15 l 151 119 l 673 119 l 673 -15 l 151 -15 m 491 479 l 491 238 l 332 238 l 332 479 l 131 479 l 131 628 l 332 628 l 332 868 l 491 868 l 491 628 l 693 628 l 693 479 l 491 479 z "},"²":{"ha":764,"x_min":172,"x_max":623,"o":"m 183 1076 q 380 1111 267 1111 q 558 1061 494 1111 q 623 920 623 1012 q 613 850 623 874 q 597 812 603 825 q 578 782 592 799 q 558 756 565 765 q 534 731 552 748 q 510 709 515 715 q 458 666 496 697 l 329 556 l 604 556 l 604 453 l 172 453 l 172 546 l 355 709 q 394 741 366 718 q 437 777 422 764 q 471 814 452 791 q 507 912 507 857 q 384 1017 507 1017 q 183 982 301 1017 l 183 1076 z "},"³":{"ha":819,"x_min":203,"x_max":690,"o":"m 503 774 q 638 707 587 758 q 690 578 690 656 q 652 454 690 500 q 426 366 580 366 q 203 419 302 366 l 238 505 q 417 456 341 456 q 535 488 493 456 q 577 585 577 519 q 399 727 577 707 l 399 819 q 517 848 470 819 q 564 938 564 878 q 412 1045 564 1045 q 254 1006 339 1045 l 222 1093 q 416 1137 310 1137 q 593 1093 522 1137 q 669 945 669 1044 q 621 824 669 873 q 503 774 572 774 z "},"´":{"ha":758,"x_min":304,"x_max":627,"o":"m 304 182 l 433 605 l 627 519 l 386 144 l 304 182 z "},"µ":{"ha":895,"x_min":125,"x_max":791,"o":"m 406 -14 q 243 77 311 -14 l 243 -197 l 125 -197 l 125 793 l 243 793 l 243 300 q 414 83 243 83 q 550 113 486 83 q 650 186 614 142 l 650 793 l 791 793 l 791 11 l 692 11 l 675 115 q 406 -14 559 -14 z "},"¶":{"ha":961,"x_min":68,"x_max":846,"o":"m 68 823 q 340 1082 68 1051 q 465 1089 396 1089 l 846 1089 l 846 0 l 688 0 l 688 988 l 595 988 l 595 0 l 435 0 l 435 543 q 68 823 68 543 z "},"·":{"ha":401,"x_min":78,"x_max":316,"o":"m 316 472 q 316 446 316 472 q 282 386 316 420 q 196 352 248 352 q 112 386 145 352 q 78 472 78 420 q 112 557 78 523 q 196 591 145 591 q 282 557 248 591 q 316 472 316 524 z "},"¸":{"ha":432,"x_min":69,"x_max":399,"o":"m 210 -435 q 150 -429 170 -435 q 125 -422 130 -423 q 110 -417 120 -421 q 96 -412 99 -414 q 69 -402 72 -403 l 69 -313 l 83 -317 q 198 -342 157 -342 q 260 -325 239 -342 q 282 -269 282 -307 q 269 -211 282 -231 q 229 -180 255 -190 q 104 -163 183 -163 l 113 31 l 195 31 l 191 -92 q 340 -135 281 -92 q 399 -262 399 -178 q 349 -390 399 -345 q 210 -435 298 -435 z "},"¹":{"ha":502,"x_min":81,"x_max":336,"o":"m 222 884 l 106 836 l 81 912 l 241 977 l 336 959 l 336 324 l 222 324 l 222 884 z "},"º":{"ha":858,"x_min":145,"x_max":721,"o":"m 433 1111 q 503 1111 433 1111 q 647 1020 572 1111 q 721 781 721 930 q 647 543 721 632 q 433 454 573 454 q 219 543 292 454 q 145 781 145 632 q 219 1020 145 930 q 433 1111 293 1111 m 252 783 q 348 559 252 609 q 433 540 384 540 q 517 559 481 541 q 574 611 553 577 q 614 783 613 676 q 574 954 614 888 q 434 1025 531 1025 q 295 959 338 1025 q 252 783 252 893 m 203 390 l 667 390 l 667 302 l 203 302 l 203 390 z "},"»":{"ha":1207,"x_min":117,"x_max":1121,"o":"m 117 787 l 619 473 l 619 321 l 117 5 l 117 203 l 439 399 l 117 590 l 117 787 m 618 787 l 1121 473 l 1121 321 l 618 5 l 618 203 l 941 399 l 618 590 l 618 787 z "},"¼":{"ha":1320,"x_min":62,"x_max":1240,"o":"m 1002 165 l 1002 439 l 821 165 l 1002 165 m 1141 654 l 1141 166 l 1240 166 l 1240 50 l 1141 50 l 1141 -114 l 1000 -120 l 1000 50 l 669 50 l 649 147 l 1020 686 l 1141 654 m 829 1016 l 956 956 l 375 -78 l 250 -20 l 829 1016 m 202 855 l 103 812 l 62 918 l 245 990 l 356 966 l 356 326 l 202 326 l 202 855 z "},"½":{"ha":1437,"x_min":77,"x_max":1343,"o":"m 1101 656 q 1152 656 1101 656 q 1273 606 1202 656 q 1343 460 1343 555 q 1296 316 1343 374 q 1254 269 1270 284 q 1218 235 1238 252 q 1190 212 1194 214 l 1090 124 l 1325 124 l 1325 -6 l 864 -6 l 864 104 q 954 178 891 127 q 1136 343 1087 287 q 1185 444 1185 400 q 1081 530 1185 530 q 890 481 1001 530 l 859 600 q 1101 656 999 656 m 217 855 l 119 812 l 77 918 l 261 990 l 371 966 l 371 326 l 217 326 l 217 855 m 837 1016 l 964 956 l 383 -78 l 258 -20 l 837 1016 z "},"¾":{"ha":1477,"x_min":92,"x_max":1392,"o":"m 1162 165 l 1162 444 l 968 165 l 1162 165 m 1293 654 l 1293 165 l 1392 165 l 1392 50 l 1293 50 l 1293 -114 l 1160 -120 l 1160 50 l 821 50 l 801 147 l 1172 686 l 1293 654 m 977 1016 l 1107 956 l 527 -78 l 402 -20 l 977 1016 m 304 440 q 433 541 433 440 q 384 630 433 601 q 262 663 335 659 l 262 783 q 395 823 354 783 q 420 884 419 846 q 303 964 420 964 q 144 924 236 964 l 94 1036 q 296 1088 177 1088 q 566 884 566 1088 q 527 777 566 821 q 431 724 488 734 q 542 659 497 709 q 586 545 586 610 q 563 437 586 479 q 500 368 541 393 q 303 318 421 317 q 92 361 186 318 l 134 481 q 304 440 208 440 z "},"¿":{"ha":820,"x_min":83,"x_max":746,"o":"m 540 1065 q 597 1012 576 1050 q 619 924 619 974 q 569 865 604 888 q 486 843 534 843 q 428 897 450 859 q 406 984 406 935 q 457 1043 421 1020 q 540 1065 492 1065 m 611 478 q 563 462 596 473 q 508 445 530 452 q 453 424 486 437 q 398 399 420 411 q 351 370 376 388 q 311 334 326 353 q 276 244 275 289 q 290 175 276 200 q 330 136 303 149 q 387 119 357 123 q 460 114 418 114 q 600 133 503 114 q 696 168 696 151 l 746 22 q 448 -44 614 -44 q 191 15 291 -44 q 83 223 83 79 q 428 570 83 466 l 428 780 l 611 780 l 611 478 z "},"À":{"ha":1026,"x_min":29,"x_max":996,"o":"m 29 0 m 635 1090 l 996 0 l 788 0 l 708 250 l 317 250 l 238 0 l 29 0 l 387 1090 l 635 1090 m 345 350 l 681 350 l 515 871 l 345 350 m 300 1615 l 496 1700 l 623 1276 l 539 1237 l 300 1615 z "},"Á":{"ha":1026,"x_min":29,"x_max":996,"o":"m 29 0 m 635 1090 l 996 0 l 788 0 l 708 250 l 317 250 l 238 0 l 29 0 l 387 1090 l 635 1090 m 345 350 l 681 350 l 515 871 l 345 350 m 398 1272 l 526 1694 l 720 1609 l 479 1234 l 398 1272 z "},"Â":{"ha":1026,"x_min":29,"x_max":996,"o":"m 29 0 m 635 1090 l 996 0 l 788 0 l 708 250 l 317 250 l 238 0 l 29 0 l 387 1090 l 635 1090 m 345 350 l 681 350 l 515 871 l 345 350 m 582 1657 l 770 1261 l 620 1240 l 515 1503 l 411 1240 l 262 1261 l 450 1657 l 582 1657 z "},"Ã":{"ha":1026,"x_min":29,"x_max":996,"o":"m 29 0 m 635 1090 l 996 0 l 788 0 l 708 250 l 317 250 l 238 0 l 29 0 l 387 1090 l 635 1090 m 345 350 l 681 350 l 515 871 l 345 350 m 798 1448 q 762 1300 798 1356 q 653 1244 727 1244 q 541 1270 600 1244 q 441 1321 490 1292 q 390 1336 412 1336 q 351 1256 351 1336 l 221 1256 q 372 1468 221 1468 q 458 1454 427 1468 q 518 1424 490 1439 l 551 1408 q 565 1400 553 1407 q 582 1392 577 1394 q 597 1385 587 1390 q 630 1378 616 1378 q 650 1383 644 1378 q 659 1399 656 1388 q 663 1448 663 1415 l 798 1448 z "},"Ä":{"ha":1026,"x_min":29,"x_max":996,"o":"m 29 0 m 635 1090 l 996 0 l 788 0 l 708 250 l 317 250 l 238 0 l 29 0 l 387 1090 l 635 1090 m 345 350 l 681 350 l 515 871 l 345 350 m 409 1348 q 409 1323 409 1348 q 377 1267 409 1299 q 296 1235 345 1235 q 216 1266 247 1235 q 185 1347 185 1298 q 216 1428 185 1396 q 296 1460 248 1460 q 377 1428 345 1460 q 409 1348 409 1396 m 823 1348 q 823 1323 823 1348 q 790 1267 823 1299 q 709 1235 758 1235 q 630 1266 661 1235 q 599 1347 599 1298 q 630 1428 599 1396 q 710 1460 661 1460 q 790 1428 758 1460 q 823 1348 823 1396 z "},"Å":{"ha":1026,"x_min":29,"x_max":996,"o":"m 29 0 m 635 1090 l 996 0 l 788 0 l 708 250 l 317 250 l 238 0 l 29 0 l 387 1090 l 635 1090 m 345 350 l 681 350 l 515 871 l 345 350 m 631 1441 q 631 1466 631 1441 q 599 1523 631 1491 q 516 1556 566 1556 q 434 1523 467 1556 q 402 1441 402 1491 q 434 1359 402 1392 q 517 1327 467 1327 q 599 1359 567 1327 q 631 1441 631 1392 m 514 1234 q 468 1234 514 1234 q 360 1293 421 1234 q 298 1442 298 1352 q 362 1591 298 1533 q 518 1649 425 1649 q 674 1590 612 1649 q 736 1440 736 1531 q 671 1291 736 1348 q 514 1234 607 1234 z "},"Æ":{"ha":1349,"x_min":29,"x_max":1296,"o":"m 632 958 l 376 352 l 632 352 l 632 958 m 1284 955 l 827 955 l 827 635 l 1235 635 l 1235 518 l 828 518 l 828 135 l 1296 135 l 1296 0 l 633 0 l 633 247 l 340 247 l 237 0 l 29 0 l 513 1090 l 1284 1090 l 1284 955 z "},"Ç":{"ha":895,"x_min":71,"x_max":861,"o":"m 71 0 m 558 957 q 287 667 323 956 q 279 536 279 608 q 558 130 279 130 q 804 205 697 130 l 861 58 q 726 -2 814 20 q 530 -23 637 -23 q 331 18 422 -23 q 183 134 239 58 q 71 540 71 285 q 184 947 71 792 q 333 1067 241 1024 q 532 1109 425 1109 q 854 1038 751 1109 l 800 890 q 558 957 696 957 m 590 -446 q 530 -439 551 -446 q 505 -432 510 -433 q 490 -428 500 -431 q 477 -422 479 -424 q 450 -412 452 -413 l 450 -323 l 463 -328 q 578 -353 537 -353 q 641 -335 619 -353 q 663 -279 663 -317 q 649 -221 663 -241 q 610 -191 635 -200 q 485 -174 564 -174 l 493 20 l 576 20 l 571 -102 q 720 -145 661 -102 q 779 -272 779 -189 q 729 -400 779 -355 q 590 -446 679 -446 z "},"È":{"ha":869,"x_min":106,"x_max":825,"o":"m 106 0 m 106 0 l 106 1090 l 817 1090 l 817 953 l 313 953 l 313 631 l 753 631 l 753 505 l 313 505 l 313 135 l 825 135 l 825 0 l 106 0 m 254 1617 l 450 1702 l 576 1277 l 492 1238 l 254 1617 z "},"É":{"ha":869,"x_min":106,"x_max":825,"o":"m 106 0 m 106 0 l 106 1090 l 817 1090 l 817 953 l 313 953 l 313 631 l 753 631 l 753 505 l 313 505 l 313 135 l 825 135 l 825 0 l 106 0 m 351 1273 l 479 1695 l 673 1610 l 433 1235 l 351 1273 z "},"Ê":{"ha":869,"x_min":106,"x_max":825,"o":"m 106 0 m 106 0 l 106 1090 l 817 1090 l 817 953 l 313 953 l 313 631 l 753 631 l 753 505 l 313 505 l 313 135 l 825 135 l 825 0 l 106 0 m 535 1658 l 723 1263 l 573 1242 l 469 1505 l 364 1242 l 216 1263 l 403 1658 l 535 1658 z "},"Ë":{"ha":869,"x_min":106,"x_max":825,"o":"m 106 0 m 106 0 l 106 1090 l 817 1090 l 817 953 l 313 953 l 313 631 l 753 631 l 753 505 l 313 505 l 313 135 l 825 135 l 825 0 l 106 0 m 363 1349 q 363 1324 363 1349 q 331 1268 363 1300 q 250 1236 299 1236 q 170 1268 201 1236 q 139 1349 139 1299 q 170 1430 139 1398 q 250 1461 201 1461 q 331 1430 299 1461 q 363 1349 363 1398 m 777 1349 q 777 1325 777 1349 q 744 1269 777 1301 q 663 1236 712 1236 q 584 1268 614 1236 q 553 1349 553 1299 q 584 1430 553 1398 q 664 1461 615 1461 q 744 1429 712 1461 q 777 1349 777 1397 z "},"Ì":{"ha":574,"x_min":59,"x_max":517,"o":"m 59 0 m 185 102 l 185 986 l 59 986 l 59 1090 l 517 1090 l 517 986 l 389 986 l 389 102 l 517 102 l 517 0 l 59 0 l 59 102 l 185 102 m 72 1620 l 268 1705 l 395 1280 l 311 1242 l 72 1620 z "},"Í":{"ha":574,"x_min":59,"x_max":517,"o":"m 59 0 m 185 102 l 185 986 l 59 986 l 59 1090 l 517 1090 l 517 986 l 389 986 l 389 102 l 517 102 l 517 0 l 59 0 l 59 102 l 185 102 m 170 1276 l 298 1699 l 492 1613 l 252 1238 l 170 1276 z "},"Î":{"ha":574,"x_min":35,"x_max":542,"o":"m 35 0 m 185 102 l 185 986 l 59 986 l 59 1090 l 517 1090 l 517 986 l 389 986 l 389 102 l 517 102 l 517 0 l 59 0 l 59 102 l 185 102 m 354 1662 l 542 1266 l 392 1245 l 288 1508 l 183 1245 l 35 1266 l 222 1662 l 354 1662 z "},"Ï":{"ha":574,"x_min":-43,"x_max":595,"o":"m 0 0 m 185 102 l 185 986 l 59 986 l 59 1090 l 517 1090 l 517 986 l 389 986 l 389 102 l 517 102 l 517 0 l 59 0 l 59 102 l 185 102 m 181 1352 q 181 1328 181 1352 q 149 1272 181 1303 q 68 1240 117 1240 q -12 1271 19 1240 q -43 1352 -43 1303 q -12 1433 -43 1401 q 68 1465 20 1465 q 149 1433 117 1465 q 181 1352 181 1401 m 595 1352 q 595 1328 595 1352 q 563 1272 595 1304 q 481 1240 530 1240 q 402 1271 433 1240 q 371 1352 371 1303 q 402 1433 371 1401 q 482 1465 433 1465 q 563 1433 530 1465 q 595 1352 595 1400 z "},"Ð":{"ha":1057,"x_min":-1,"x_max":986,"o":"m 420 135 q 703 236 627 136 q 760 362 743 289 q 777 543 777 435 q 760 726 777 652 q 704 854 744 800 q 420 959 627 959 l 316 959 l 316 627 l 490 627 l 490 494 l 316 494 l 316 135 l 420 135 m 469 1090 q 986 541 986 1090 q 856 139 986 279 q 469 0 726 0 l 109 0 l 109 494 l -1 494 l -1 627 l 109 627 l 109 1090 l 469 1090 z "},"Ñ":{"ha":1120,"x_min":106,"x_max":1014,"o":"m 106 0 m 787 0 l 296 831 l 296 0 l 106 0 l 106 1090 l 342 1090 l 824 268 l 824 1090 l 1014 1090 l 1014 0 l 787 0 m 836 1449 q 800 1301 836 1358 q 691 1245 765 1245 q 578 1271 638 1245 q 479 1322 528 1293 q 428 1337 450 1337 q 389 1257 389 1337 l 259 1257 q 410 1470 259 1470 q 496 1455 465 1470 q 556 1426 528 1440 l 589 1409 q 603 1402 591 1409 q 620 1393 615 1395 q 635 1387 625 1391 q 668 1379 654 1379 q 688 1384 682 1379 q 697 1400 694 1390 q 701 1449 701 1417 l 836 1449 z "},"Ò":{"ha":1093,"x_min":71,"x_max":1022,"o":"m 71 0 m 559 1109 q 761 1069 669 1109 q 909 955 852 1029 q 1022 549 1022 808 q 727 3 1023 104 q 533 -24 647 -24 q 327 18 420 -24 q 179 138 235 60 q 71 555 71 290 q 236 1010 71 869 q 559 1109 353 1109 m 734 874 q 720 893 734 874 q 658 934 705 911 q 548 957 611 957 q 436 935 484 957 q 359 875 389 912 q 312 783 330 838 q 280 541 281 687 q 359 212 280 311 q 546 130 425 130 q 711 188 652 130 q 792 337 770 246 q 813 520 813 429 q 806 669 813 612 q 782 782 800 727 q 734 874 764 838 m 331 1623 l 527 1708 l 654 1283 l 570 1244 l 331 1623 z "},"Ó":{"ha":1093,"x_min":71,"x_max":1022,"o":"m 71 0 m 559 1109 q 761 1069 669 1109 q 909 955 852 1029 q 1022 549 1022 808 q 727 3 1023 104 q 533 -24 647 -24 q 327 18 420 -24 q 179 138 235 60 q 71 555 71 290 q 236 1010 71 869 q 559 1109 353 1109 m 734 874 q 720 893 734 874 q 658 934 705 911 q 548 957 611 957 q 436 935 484 957 q 359 875 389 912 q 312 783 330 838 q 280 541 281 687 q 359 212 280 311 q 546 130 425 130 q 711 188 652 130 q 792 337 770 246 q 813 520 813 429 q 806 669 813 612 q 782 782 800 727 q 734 874 764 838 m 429 1279 l 557 1702 l 751 1616 l 511 1241 l 429 1279 z "},"Ô":{"ha":1093,"x_min":71,"x_max":1022,"o":"m 71 0 m 559 1109 q 761 1069 669 1109 q 909 955 852 1029 q 1022 549 1022 808 q 727 3 1023 104 q 533 -24 647 -24 q 327 18 420 -24 q 179 138 235 60 q 71 555 71 290 q 236 1010 71 869 q 559 1109 353 1109 m 734 874 q 720 893 734 874 q 658 934 705 911 q 548 957 611 957 q 436 935 484 957 q 359 875 389 912 q 312 783 330 838 q 280 541 281 687 q 359 212 280 311 q 546 130 425 130 q 711 188 652 130 q 792 337 770 246 q 813 520 813 429 q 806 669 813 612 q 782 782 800 727 q 734 874 764 838 m 613 1664 l 801 1269 l 651 1248 l 547 1511 l 442 1248 l 294 1269 l 481 1664 l 613 1664 z "},"Õ":{"ha":1093,"x_min":71,"x_max":1022,"o":"m 71 0 m 559 1109 q 761 1069 669 1109 q 909 955 852 1029 q 1022 549 1022 808 q 727 3 1023 104 q 533 -24 647 -24 q 327 18 420 -24 q 179 138 235 60 q 71 555 71 290 q 236 1010 71 869 q 559 1109 353 1109 m 734 874 q 720 893 734 874 q 658 934 705 911 q 548 957 611 957 q 436 935 484 957 q 359 875 389 912 q 312 783 330 838 q 280 541 281 687 q 359 212 280 311 q 546 130 425 130 q 711 188 652 130 q 792 337 770 246 q 813 520 813 429 q 806 669 813 612 q 782 782 800 727 q 734 874 764 838 m 829 1455 q 793 1308 829 1364 q 684 1251 758 1251 q 572 1277 631 1251 q 473 1329 522 1299 q 421 1343 443 1343 q 382 1263 382 1343 l 252 1263 q 404 1476 252 1476 q 490 1461 458 1476 q 549 1432 521 1447 l 582 1415 q 596 1408 584 1415 q 613 1399 608 1401 q 628 1393 618 1397 q 661 1385 647 1385 q 681 1391 675 1385 q 690 1407 688 1396 q 694 1455 694 1423 l 829 1455 z "},"Ö":{"ha":1093,"x_min":71,"x_max":1022,"o":"m 71 0 m 559 1109 q 761 1069 669 1109 q 909 955 852 1029 q 1022 549 1022 808 q 727 3 1023 104 q 533 -24 647 -24 q 327 18 420 -24 q 179 138 235 60 q 71 555 71 290 q 236 1010 71 869 q 559 1109 353 1109 m 734 874 q 720 893 734 874 q 658 934 705 911 q 548 957 611 957 q 436 935 484 957 q 359 875 389 912 q 312 783 330 838 q 280 541 281 687 q 359 212 280 311 q 546 130 425 130 q 711 188 652 130 q 792 337 770 246 q 813 520 813 429 q 806 669 813 612 q 782 782 800 727 q 734 874 764 838 m 440 1354 q 440 1330 440 1354 q 408 1274 440 1305 q 327 1242 376 1242 q 247 1273 278 1242 q 216 1354 216 1305 q 248 1435 216 1403 q 328 1467 279 1467 q 408 1435 376 1467 q 440 1354 440 1403 m 854 1354 q 854 1330 854 1354 q 822 1274 854 1306 q 741 1242 789 1242 q 661 1273 692 1242 q 630 1354 630 1305 q 661 1435 630 1403 q 741 1467 692 1467 q 822 1435 789 1467 q 854 1354 854 1402 z "},"×":{"ha":923,"x_min":163,"x_max":786,"o":"m 267 686 l 474 485 l 682 686 l 786 574 l 584 380 l 786 184 l 682 73 l 474 274 l 267 73 l 163 184 l 364 380 l 163 574 l 267 686 z "},"Ø":{"ha":1093,"x_min":71,"x_max":1022,"o":"m 827 1031 q 1022 543 1022 897 q 725 3 1022 102 q 550 -23 646 -23 q 390 -3 455 -23 l 343 -113 l 259 -82 l 307 30 q 71 543 71 151 q 183 954 71 803 q 543 1109 300 1109 q 749 1073 657 1109 l 800 1193 l 882 1162 l 827 1031 m 452 146 q 560 130 510 130 q 658 152 610 130 q 735 212 706 174 q 783 303 765 248 q 813 543 814 397 q 751 849 813 745 l 452 146 m 685 920 q 565 957 627 957 q 464 945 503 957 q 398 914 426 934 q 350 864 371 894 q 316 800 330 834 q 294 723 302 766 q 280 531 279 649 q 323 357 280 412 q 376 195 328 239 l 685 920 z "},"Ù":{"ha":1078,"x_min":95,"x_max":981,"o":"m 95 0 m 302 494 q 328 262 302 332 q 399 164 353 194 q 538 130 453 129 q 720 206 669 130 q 762 313 754 256 q 773 494 773 393 l 773 1090 l 981 1090 l 981 497 q 746 12 981 109 q 540 -23 661 -23 q 332 12 419 -23 q 194 114 245 46 q 95 497 95 244 l 95 1090 l 302 1090 l 302 494 m 323 1616 l 519 1701 l 646 1276 l 562 1238 l 323 1616 z "},"Ú":{"ha":1078,"x_min":95,"x_max":981,"o":"m 95 0 m 302 494 q 328 262 302 332 q 399 164 353 194 q 538 130 453 129 q 720 206 669 130 q 762 313 754 256 q 773 494 773 393 l 773 1090 l 981 1090 l 981 497 q 746 12 981 109 q 540 -23 661 -23 q 332 12 419 -23 q 194 114 245 46 q 95 497 95 244 l 95 1090 l 302 1090 l 302 494 m 421 1272 l 549 1695 l 743 1609 l 503 1234 l 421 1272 z "},"Û":{"ha":1078,"x_min":95,"x_max":981,"o":"m 95 0 m 302 494 q 328 262 302 332 q 399 164 353 194 q 538 130 453 129 q 720 206 669 130 q 762 313 754 256 q 773 494 773 393 l 773 1090 l 981 1090 l 981 497 q 746 12 981 109 q 540 -23 661 -23 q 332 12 419 -23 q 194 114 245 46 q 95 497 95 244 l 95 1090 l 302 1090 l 302 494 m 605 1657 l 793 1262 l 643 1241 l 538 1504 l 434 1241 l 286 1262 l 473 1657 l 605 1657 z "},"Ü":{"ha":1078,"x_min":95,"x_max":981,"o":"m 95 0 m 302 494 q 328 262 302 332 q 399 164 353 194 q 538 130 453 129 q 720 206 669 130 q 762 313 754 256 q 773 494 773 393 l 773 1090 l 981 1090 l 981 497 q 746 12 981 109 q 540 -23 661 -23 q 332 12 419 -23 q 194 114 245 46 q 95 497 95 244 l 95 1090 l 302 1090 l 302 494 m 432 1348 q 432 1324 432 1348 q 400 1267 432 1299 q 319 1236 368 1236 q 239 1267 270 1236 q 208 1348 208 1299 q 239 1429 208 1397 q 319 1461 271 1461 q 400 1429 368 1461 q 432 1348 432 1397 m 846 1348 q 846 1324 846 1348 q 813 1268 846 1300 q 732 1236 781 1236 q 653 1267 684 1236 q 622 1348 622 1299 q 653 1429 622 1397 q 733 1461 684 1461 q 813 1429 781 1461 q 846 1348 846 1396 z "},"Ý":{"ha":876,"x_min":-13,"x_max":888,"o":"m 0 0 m 680 1090 l 888 1090 l 535 349 l 535 0 l 338 0 l 338 349 l -13 1090 l 195 1090 l 437 563 l 680 1090 m 320 1273 l 448 1695 l 642 1610 l 401 1235 l 320 1273 z "},"Þ":{"ha":956,"x_min":106,"x_max":865,"o":"m 305 384 q 499 353 416 353 q 669 583 670 353 q 555 804 669 764 q 462 817 519 817 q 305 791 404 817 l 305 384 m 865 582 q 865 490 865 582 q 763 302 865 399 q 464 206 661 206 q 305 259 365 206 l 305 -92 l 106 -92 l 106 1090 l 298 1090 l 298 895 q 527 958 399 958 q 781 859 692 958 q 865 582 865 764 z "},"ß":{"ha":1041,"x_min":106,"x_max":988,"o":"m 416 499 l 415 535 l 415 625 q 614 652 566 625 q 681 731 666 681 q 690 801 689 761 q 640 917 690 884 q 494 950 591 950 q 332 842 363 949 q 314 677 314 782 l 314 0 l 106 0 l 106 680 q 200 987 106 885 q 494 1090 294 1090 q 762 1025 661 1089 q 871 804 871 956 q 816 642 871 702 q 663 572 760 583 q 988 257 988 537 q 955 107 988 173 q 868 0 922 41 q 739 -68 814 -41 q 412 -117 602 -117 l 412 43 q 635 77 564 52 q 743 143 711 103 q 785 260 785 195 q 765 366 785 325 q 712 432 745 407 q 630 473 679 457 q 416 499 547 499 z "},"à":{"ha":844,"x_min":58,"x_max":753,"o":"m 58 0 m 555 481 q 522 653 555 616 q 418 689 490 689 q 162 618 283 689 l 109 742 q 423 824 247 824 q 682 731 608 823 q 753 452 753 643 l 753 0 l 601 0 l 574 111 q 476 16 532 47 q 335 -16 421 -16 q 131 50 203 -16 q 58 244 58 117 q 240 480 58 426 q 358 498 293 496 q 555 481 464 498 m 555 380 l 509 385 l 479 388 q 437 389 458 389 q 389 387 416 389 q 335 375 361 384 q 293 353 309 367 q 256 259 256 321 q 386 120 256 120 q 479 142 439 120 q 555 203 519 164 l 555 380 m 208 1329 l 404 1413 l 531 989 l 447 950 l 208 1329 z "},"á":{"ha":844,"x_min":58,"x_max":753,"o":"m 58 0 m 555 481 q 522 653 555 616 q 418 689 490 689 q 162 618 283 689 l 109 742 q 423 824 247 824 q 682 731 608 823 q 753 452 753 643 l 753 0 l 601 0 l 574 111 q 476 16 532 47 q 335 -16 421 -16 q 131 50 203 -16 q 58 244 58 117 q 240 480 58 426 q 358 498 293 496 q 555 481 464 498 m 555 380 l 509 385 l 479 388 q 437 389 458 389 q 389 387 416 389 q 335 375 361 384 q 293 353 309 367 q 256 259 256 321 q 386 120 256 120 q 479 142 439 120 q 555 203 519 164 l 555 380 m 307 985 l 435 1407 l 629 1322 l 388 947 l 307 985 z "},"â":{"ha":844,"x_min":58,"x_max":753,"o":"m 58 0 m 555 481 q 522 653 555 616 q 418 689 490 689 q 162 618 283 689 l 109 742 q 423 824 247 824 q 682 731 608 823 q 753 452 753 643 l 753 0 l 601 0 l 574 111 q 476 16 532 47 q 335 -16 421 -16 q 131 50 203 -16 q 58 244 58 117 q 240 480 58 426 q 358 498 293 496 q 555 481 464 498 m 555 380 l 509 385 l 479 388 q 437 389 458 389 q 389 387 416 389 q 335 375 361 384 q 293 353 309 367 q 256 259 256 321 q 386 120 256 120 q 479 142 439 120 q 555 203 519 164 l 555 380 m 491 1370 l 679 975 l 529 954 l 425 1217 l 320 954 l 172 975 l 359 1370 l 491 1370 z "},"ã":{"ha":844,"x_min":58,"x_max":753,"o":"m 58 0 m 555 481 q 522 653 555 616 q 418 689 490 689 q 162 618 283 689 l 109 742 q 423 824 247 824 q 682 731 608 823 q 753 452 753 643 l 753 0 l 601 0 l 574 111 q 476 16 532 47 q 335 -16 421 -16 q 131 50 203 -16 q 58 244 58 117 q 240 480 58 426 q 358 498 293 496 q 555 481 464 498 m 555 380 l 509 385 l 479 388 q 437 389 458 389 q 389 387 416 389 q 335 375 361 384 q 293 353 309 367 q 256 259 256 321 q 386 120 256 120 q 479 142 439 120 q 555 203 519 164 l 555 380 m 707 1161 q 671 1013 707 1069 q 562 957 636 957 q 450 983 509 957 q 351 1034 399 1005 q 299 1049 321 1049 q 260 969 260 1049 l 130 969 q 281 1181 130 1181 q 368 1167 336 1181 q 427 1137 399 1152 l 460 1121 q 474 1114 462 1120 q 491 1105 486 1107 q 506 1099 496 1103 q 539 1091 525 1091 q 559 1096 553 1091 q 568 1112 566 1101 q 572 1161 572 1128 l 707 1161 z "},"ä":{"ha":844,"x_min":58,"x_max":753,"o":"m 58 0 m 555 481 q 522 653 555 616 q 418 689 490 689 q 162 618 283 689 l 109 742 q 423 824 247 824 q 682 731 608 823 q 753 452 753 643 l 753 0 l 601 0 l 574 111 q 476 16 532 47 q 335 -16 421 -16 q 131 50 203 -16 q 58 244 58 117 q 240 480 58 426 q 358 498 293 496 q 555 481 464 498 m 555 380 l 509 385 l 479 388 q 437 389 458 389 q 389 387 416 389 q 335 375 361 384 q 293 353 309 367 q 256 259 256 321 q 386 120 256 120 q 479 142 439 120 q 555 203 519 164 l 555 380 m 317 1061 q 317 1036 317 1061 q 286 980 317 1012 q 204 948 254 948 q 124 980 155 948 q 94 1060 94 1011 q 125 1141 94 1109 q 205 1173 156 1173 q 286 1141 254 1173 q 317 1061 317 1109 m 731 1061 q 731 1037 731 1061 q 699 980 731 1013 q 618 948 667 948 q 538 980 569 948 q 507 1060 507 1011 q 538 1141 507 1109 q 618 1173 570 1173 q 699 1141 667 1173 q 731 1061 731 1109 z "},"å":{"ha":844,"x_min":58,"x_max":753,"o":"m 58 0 m 555 481 q 522 653 555 616 q 418 689 490 689 q 162 618 283 689 l 109 742 q 423 824 247 824 q 682 731 608 823 q 753 452 753 643 l 753 0 l 601 0 l 574 111 q 476 16 532 47 q 335 -16 421 -16 q 131 50 203 -16 q 58 244 58 117 q 240 480 58 426 q 358 498 293 496 q 555 481 464 498 m 555 380 l 509 385 l 479 388 q 437 389 458 389 q 389 387 416 389 q 335 375 361 384 q 293 353 309 367 q 256 259 256 321 q 386 120 256 120 q 479 142 439 120 q 555 203 519 164 l 555 380 m 541 1154 q 541 1179 541 1154 q 508 1236 541 1204 q 426 1269 475 1269 q 343 1236 376 1269 q 311 1154 311 1204 q 343 1073 311 1105 q 426 1040 376 1040 q 508 1073 476 1040 q 541 1154 541 1105 m 423 947 q 377 947 423 947 q 269 1006 330 947 q 208 1156 208 1065 q 271 1304 208 1246 q 428 1362 334 1362 q 583 1303 521 1362 q 645 1153 645 1244 q 581 1004 645 1061 q 423 947 516 947 z "},"æ":{"ha":1288,"x_min":62,"x_max":1232,"o":"m 1067 468 q 913 685 1067 685 q 786 625 829 685 q 741 468 743 564 l 1067 468 m 939 127 q 1057 146 999 127 q 1148 193 1115 164 l 1192 60 q 1074 8 1149 29 q 910 -13 1000 -13 q 639 135 727 -13 q 517 25 594 65 q 321 -14 439 -14 q 132 52 202 -14 q 62 248 62 118 q 259 486 62 439 q 400 499 317 499 q 552 481 483 499 q 518 644 552 610 q 406 677 484 677 q 267 658 349 677 q 150 612 188 640 l 112 740 q 244 798 154 777 q 426 820 335 820 q 666 698 611 820 q 763 788 699 756 q 915 820 827 820 q 1150 723 1068 820 q 1232 463 1232 625 q 1230 364 1232 415 l 741 364 q 939 127 744 127 m 552 380 q 452 389 486 389 q 395 387 418 389 q 348 380 372 385 q 308 366 324 375 q 278 342 292 356 q 251 258 251 313 q 384 123 251 123 q 472 144 433 123 q 552 203 510 165 l 552 380 z "},"ç":{"ha":751,"x_min":58,"x_max":706,"o":"m 58 0 m 706 62 q 443 -16 597 -16 q 157 95 257 -16 q 58 397 58 205 q 102 617 58 521 q 235 768 146 713 q 445 824 324 824 q 706 749 604 824 l 663 618 q 465 689 578 689 q 304 610 351 684 q 257 403 257 536 q 469 120 257 119 q 575 139 530 120 q 663 192 620 157 l 706 62 m 498 -435 q 438 -429 458 -435 q 413 -422 418 -423 q 398 -417 408 -421 q 385 -412 387 -414 q 357 -402 360 -403 l 357 -313 l 371 -317 q 486 -342 445 -342 q 549 -325 527 -342 q 570 -269 570 -307 q 557 -211 570 -231 q 517 -180 543 -190 q 393 -163 471 -163 l 401 31 l 484 31 l 479 -92 q 628 -135 569 -92 q 687 -262 687 -178 q 637 -390 687 -345 q 498 -435 587 -435 z "},"è":{"ha":816,"x_min":58,"x_max":760,"o":"m 58 0 m 470 120 q 583 138 535 120 q 676 191 630 155 l 721 57 q 454 -16 598 -16 q 162 90 267 -16 q 58 385 58 197 q 150 700 58 580 q 433 824 245 824 q 675 728 591 824 q 760 465 760 631 q 758 364 760 413 l 260 364 q 314 184 262 248 q 470 120 366 120 m 595 477 q 437 689 595 686 q 308 626 351 686 q 260 468 264 565 l 595 468 l 595 477 m 216 1335 l 412 1419 l 539 995 l 455 956 l 216 1335 z "},"é":{"ha":816,"x_min":58,"x_max":760,"o":"m 58 0 m 470 120 q 583 138 535 120 q 676 191 630 155 l 721 57 q 454 -16 598 -16 q 162 90 267 -16 q 58 385 58 197 q 150 700 58 580 q 433 824 245 824 q 675 728 591 824 q 760 465 760 631 q 758 364 760 413 l 260 364 q 314 184 262 248 q 470 120 366 120 m 595 477 q 437 689 595 686 q 308 626 351 686 q 260 468 264 565 l 595 468 l 595 477 m 315 991 l 443 1413 l 637 1328 l 396 953 l 315 991 z "},"ê":{"ha":816,"x_min":58,"x_max":760,"o":"m 58 0 m 470 120 q 583 138 535 120 q 676 191 630 155 l 721 57 q 454 -16 598 -16 q 162 90 267 -16 q 58 385 58 197 q 150 700 58 580 q 433 824 245 824 q 675 728 591 824 q 760 465 760 631 q 758 364 760 413 l 260 364 q 314 184 262 248 q 470 120 366 120 m 595 477 q 437 689 595 686 q 308 626 351 686 q 260 468 264 565 l 595 468 l 595 477 m 499 1376 l 687 981 l 537 960 l 433 1223 l 328 960 l 180 981 l 367 1376 l 499 1376 z "},"ë":{"ha":816,"x_min":58,"x_max":760,"o":"m 58 0 m 470 120 q 583 138 535 120 q 676 191 630 155 l 721 57 q 454 -16 598 -16 q 162 90 267 -16 q 58 385 58 197 q 150 700 58 580 q 433 824 245 824 q 675 728 591 824 q 760 465 760 631 q 758 364 760 413 l 260 364 q 314 184 262 248 q 470 120 366 120 m 595 477 q 437 689 595 686 q 308 626 351 686 q 260 468 264 565 l 595 468 l 595 477 m 326 1067 q 326 1042 326 1067 q 294 986 326 1018 q 213 954 262 954 q 133 986 163 954 q 102 1066 102 1017 q 133 1147 102 1116 q 213 1179 164 1179 q 294 1147 262 1179 q 326 1067 326 1116 m 739 1067 q 739 1043 739 1067 q 707 986 739 1019 q 626 954 675 954 q 546 986 577 954 q 515 1066 515 1017 q 547 1147 515 1116 q 626 1179 578 1179 q 707 1147 675 1179 q 739 1067 739 1115 z "},"ì":{"ha":452,"x_min":-27,"x_max":334,"o":"m -27 1297 l 170 1382 l 296 957 l 212 919 l -27 1297 m 138 0 l 138 804 l 334 804 l 334 0 l 138 0 z "},"í":{"ha":452,"x_min":105,"x_max":427,"o":"m 105 941 l 233 1363 l 427 1278 l 186 903 l 105 941 m 138 0 l 138 804 l 334 804 l 334 0 l 138 0 z "},"î":{"ha":452,"x_min":-26,"x_max":480,"o":"m 294 1325 l 480 930 l 331 909 l 227 1172 l 122 909 l -26 930 l 161 1325 l 294 1325 m 138 0 l 138 804 l 334 804 l 334 0 l 138 0 z "},"ï":{"ha":452,"x_min":-102,"x_max":536,"o":"m 122 1011 q 122 987 122 1011 q 90 930 122 962 q 9 899 58 899 q -71 930 -40 899 q -102 1011 -102 962 q -71 1092 -102 1060 q 9 1124 -39 1124 q 90 1092 58 1124 q 122 1011 122 1060 m 536 1011 q 536 987 536 1011 q 504 931 536 963 q 422 899 471 899 q 343 930 374 899 q 312 1011 312 962 q 343 1092 312 1060 q 423 1124 374 1124 q 504 1092 471 1124 q 536 1011 536 1059 m 138 0 l 138 804 l 334 804 l 334 0 l 138 0 z "},"ð":{"ha":863,"x_min":58,"x_max":798,"o":"m 623 984 q 752 743 707 873 q 798 444 798 614 q 591 19 798 106 q 421 -12 517 -12 q 256 19 325 -12 q 144 108 187 51 q 58 409 57 222 q 133 697 58 581 q 231 787 170 754 q 369 820 292 820 q 505 791 445 820 q 600 717 564 763 q 469 935 573 817 l 307 885 l 278 972 l 397 1009 q 273 1105 336 1066 l 358 1207 q 554 1058 468 1142 l 755 1121 l 784 1034 l 623 984 m 601 540 q 536 644 585 606 q 428 683 488 683 q 334 661 367 683 q 285 598 301 639 q 254 405 254 523 q 420 125 254 125 q 555 199 513 125 q 597 353 593 266 q 601 540 601 441 z "},"ñ":{"ha":903,"x_min":104,"x_max":811,"o":"m 104 0 m 612 510 q 585 644 612 600 q 493 689 557 689 q 380 662 430 689 q 302 597 330 635 l 302 0 l 104 0 l 104 804 l 254 804 l 288 690 q 388 787 324 749 q 534 824 452 824 q 746 742 681 824 q 811 500 811 659 l 811 0 l 612 0 l 612 510 m 734 1167 q 699 1019 734 1076 q 590 963 664 963 q 477 989 537 963 q 378 1040 427 1011 q 327 1055 349 1055 q 288 975 288 1055 l 158 975 q 309 1187 158 1187 q 395 1173 364 1187 q 455 1143 427 1158 l 488 1127 q 502 1120 490 1126 q 519 1111 514 1113 q 534 1105 524 1109 q 567 1097 553 1097 q 587 1102 581 1097 q 596 1118 593 1107 q 600 1167 600 1135 l 734 1167 z "},"ò":{"ha":881,"x_min":58,"x_max":823,"o":"m 58 0 m 628 399 q 441 685 628 685 q 255 399 255 685 q 441 114 255 114 q 623 311 600 114 q 628 399 628 350 m 441 821 q 726 708 629 821 q 823 399 823 596 q 726 90 823 201 q 441 -21 629 -21 q 155 91 252 -21 q 58 399 58 202 q 155 708 58 595 q 441 821 252 821 m 228 1335 l 424 1419 l 551 995 l 467 956 l 228 1335 z "},"ó":{"ha":881,"x_min":58,"x_max":823,"o":"m 58 0 m 628 399 q 441 685 628 685 q 255 399 255 685 q 441 114 255 114 q 623 311 600 114 q 628 399 628 350 m 441 821 q 726 708 629 821 q 823 399 823 596 q 726 90 823 201 q 441 -21 629 -21 q 155 91 252 -21 q 58 399 58 202 q 155 708 58 595 q 441 821 252 821 m 326 991 l 454 1413 l 648 1328 l 407 953 l 326 991 z "},"ô":{"ha":881,"x_min":58,"x_max":823,"o":"m 58 0 m 628 399 q 441 685 628 685 q 255 399 255 685 q 441 114 255 114 q 623 311 600 114 q 628 399 628 350 m 441 821 q 726 708 629 821 q 823 399 823 596 q 726 90 823 201 q 441 -21 629 -21 q 155 91 252 -21 q 58 399 58 202 q 155 708 58 595 q 441 821 252 821 m 510 1376 l 698 981 l 548 960 l 444 1223 l 339 960 l 191 981 l 378 1376 l 510 1376 z "},"õ":{"ha":881,"x_min":58,"x_max":823,"o":"m 58 0 m 628 399 q 441 685 628 685 q 255 399 255 685 q 441 114 255 114 q 623 311 600 114 q 628 399 628 350 m 441 821 q 726 708 629 821 q 823 399 823 596 q 726 90 823 201 q 441 -21 629 -21 q 155 91 252 -21 q 58 399 58 202 q 155 708 58 595 q 441 821 252 821 m 726 1167 q 691 1019 726 1076 q 582 963 656 963 q 469 989 529 963 q 370 1040 419 1011 q 319 1055 340 1055 q 279 975 279 1055 l 150 975 q 301 1187 150 1187 q 387 1173 356 1187 q 447 1143 418 1158 l 479 1127 q 494 1120 481 1126 q 511 1111 506 1113 q 526 1105 515 1109 q 558 1097 545 1097 q 579 1102 572 1097 q 588 1118 585 1107 q 592 1167 592 1135 l 726 1167 z "},"ö":{"ha":881,"x_min":58,"x_max":823,"o":"m 58 0 m 628 399 q 441 685 628 685 q 255 399 255 685 q 441 114 255 114 q 623 311 600 114 q 628 399 628 350 m 441 821 q 726 708 629 821 q 823 399 823 596 q 726 90 823 201 q 441 -21 629 -21 q 155 91 252 -21 q 58 399 58 202 q 155 708 58 595 q 441 821 252 821 m 337 1067 q 337 1042 337 1067 q 305 986 337 1018 q 224 954 273 954 q 144 986 175 954 q 113 1066 113 1017 q 144 1147 113 1116 q 224 1179 176 1179 q 305 1147 273 1179 q 337 1067 337 1116 m 751 1067 q 751 1043 751 1067 q 719 986 751 1019 q 637 954 686 954 q 558 986 589 954 q 527 1066 527 1017 q 558 1147 527 1116 q 638 1179 589 1179 q 719 1147 686 1179 q 751 1067 751 1115 z "},"÷":{"ha":789,"x_min":100,"x_max":706,"o":"m 512 706 q 512 682 512 706 q 482 625 512 657 q 403 593 452 593 q 324 625 355 593 q 294 706 294 656 q 324 787 294 755 q 403 819 355 819 q 482 787 452 819 q 512 706 512 755 m 513 210 q 513 185 513 210 q 483 129 513 161 q 404 97 452 97 q 325 129 355 97 q 294 209 294 160 q 325 290 294 258 q 404 322 355 322 q 483 290 452 322 q 513 210 513 258 m 100 387 l 100 532 l 706 532 l 706 387 l 100 387 z "},"ø":{"ha":881,"x_min":58,"x_max":823,"o":"m 499 688 q 432 696 479 696 q 343 674 385 696 q 279 613 302 652 q 233 429 233 536 q 317 155 233 211 l 499 688 m 823 401 q 724 98 823 209 q 440 -12 625 -12 q 341 -2 387 -12 l 298 -127 l 231 -104 l 273 18 q 113 160 168 62 q 58 401 58 257 q 156 707 58 595 q 440 820 255 820 q 538 810 488 820 l 583 942 l 649 919 l 605 789 q 766 647 710 745 q 823 401 823 548 m 381 117 q 449 111 401 111 q 538 134 496 111 q 605 198 581 157 q 651 403 651 277 q 560 651 651 585 l 381 117 z "},"ù":{"ha":889,"x_min":91,"x_max":786,"o":"m 91 0 m 307 183 q 317 166 307 183 q 352 137 327 149 q 423 125 377 125 q 587 201 509 125 l 587 804 l 786 804 l 786 0 l 644 0 l 604 122 q 521 21 576 59 q 385 -16 465 -16 q 162 65 234 -16 q 91 308 91 147 l 91 804 l 288 804 l 288 297 q 307 183 288 216 m 228 1335 l 424 1419 l 551 995 l 467 956 l 228 1335 z "},"ú":{"ha":889,"x_min":91,"x_max":786,"o":"m 91 0 m 307 183 q 317 166 307 183 q 352 137 327 149 q 423 125 377 125 q 587 201 509 125 l 587 804 l 786 804 l 786 0 l 644 0 l 604 122 q 521 21 576 59 q 385 -16 465 -16 q 162 65 234 -16 q 91 308 91 147 l 91 804 l 288 804 l 288 297 q 307 183 288 216 m 326 991 l 454 1413 l 648 1328 l 408 953 l 326 991 z "},"û":{"ha":889,"x_min":91,"x_max":786,"o":"m 91 0 m 307 183 q 317 166 307 183 q 352 137 327 149 q 423 125 377 125 q 587 201 509 125 l 587 804 l 786 804 l 786 0 l 644 0 l 604 122 q 521 21 576 59 q 385 -16 465 -16 q 162 65 234 -16 q 91 308 91 147 l 91 804 l 288 804 l 288 297 q 307 183 288 216 m 511 1376 l 699 981 l 549 960 l 444 1223 l 340 960 l 191 981 l 378 1376 l 511 1376 z "},"ü":{"ha":889,"x_min":91,"x_max":786,"o":"m 91 0 m 307 183 q 317 166 307 183 q 352 137 327 149 q 423 125 377 125 q 587 201 509 125 l 587 804 l 786 804 l 786 0 l 644 0 l 604 122 q 521 21 576 59 q 385 -16 465 -16 q 162 65 234 -16 q 91 308 91 147 l 91 804 l 288 804 l 288 297 q 307 183 288 216 m 338 1067 q 338 1042 338 1067 q 306 986 338 1018 q 225 954 274 954 q 145 986 176 954 q 114 1066 114 1017 q 145 1147 114 1116 q 225 1179 176 1179 q 306 1147 274 1179 q 338 1067 338 1116 m 751 1067 q 751 1043 751 1067 q 719 986 751 1019 q 638 954 687 954 q 558 986 589 954 q 528 1066 528 1017 q 559 1147 528 1116 q 638 1179 590 1179 q 719 1147 687 1179 q 751 1067 751 1115 z "},"ý":{"ha":801,"x_min":14,"x_max":789,"o":"m 14 0 m 14 804 l 214 804 l 425 224 l 587 804 l 789 804 l 505 -24 q 348 -262 446 -191 q 153 -321 267 -321 l 98 -187 q 258 -125 206 -174 q 338 24 310 -77 l 14 804 m 294 991 l 422 1413 l 616 1328 l 376 953 l 294 991 z "},"þ":{"ha":903,"x_min":104,"x_max":845,"o":"m 500 125 q 644 317 628 125 q 647 394 647 351 q 485 679 647 679 q 352 642 410 680 q 302 604 332 628 l 302 197 q 500 125 382 125 m 797 644 q 809 617 797 644 q 833 529 822 591 q 845 372 845 467 q 810 188 845 278 q 699 43 775 98 q 513 -12 623 -12 q 302 78 370 -12 l 302 -296 l 104 -302 l 104 1086 l 299 1086 l 299 709 q 389 787 332 757 q 517 817 447 817 q 642 795 587 817 q 734 736 696 774 q 797 644 772 698 z "},"ÿ":{"ha":801,"x_min":14,"x_max":789,"o":"m 14 0 m 14 804 l 214 804 l 425 224 l 587 804 l 789 804 l 505 -24 q 348 -262 446 -191 q 153 -321 267 -321 l 98 -187 q 258 -125 206 -174 q 338 24 310 -77 l 14 804 m 304 1067 q 304 1042 304 1067 q 273 986 304 1018 q 192 954 241 954 q 112 986 142 954 q 81 1066 81 1017 q 112 1147 81 1116 q 192 1179 143 1179 q 273 1147 241 1179 q 304 1067 304 1116 m 718 1067 q 718 1043 718 1067 q 686 986 718 1019 q 605 954 654 954 q 525 986 556 954 q 494 1066 494 1017 q 526 1147 494 1116 q 605 1179 557 1179 q 686 1147 654 1179 q 718 1067 718 1115 z "},"Œ":{"ha":1577,"x_min":71,"x_max":1533,"o":"m 814 0 l 814 1090 l 1525 1090 l 1525 953 l 1021 953 l 1021 631 l 1461 631 l 1461 505 l 1021 505 l 1021 135 l 1533 135 l 1533 0 l 814 0 m 559 1109 q 761 1069 669 1109 q 909 955 852 1029 q 1022 549 1022 808 q 727 3 1023 104 q 533 -24 647 -24 q 327 18 420 -24 q 179 138 235 60 q 71 555 71 290 q 236 1010 71 869 q 559 1109 353 1109 m 734 874 q 720 893 734 874 q 658 934 705 911 q 548 957 611 957 q 436 935 484 957 q 359 875 389 912 q 312 783 330 838 q 280 541 281 687 q 359 212 280 311 q 546 130 425 130 q 711 188 652 130 q 792 337 770 246 q 813 520 813 429 q 806 669 813 612 q 782 782 800 727 q 734 874 764 838 z "},"œ":{"ha":1387,"x_min":58,"x_max":1331,"o":"m 1166 468 q 1008 689 1166 687 q 910 657 951 688 q 831 468 837 601 l 1166 468 m 255 400 q 255 257 255 400 q 441 115 255 115 q 628 400 628 115 q 441 685 628 685 q 255 400 255 685 m 1025 -16 q 730 132 815 -16 q 622 19 699 59 q 441 -22 545 -22 q 156 90 254 -22 q 58 398 58 202 q 156 708 58 595 q 441 821 253 821 q 727 658 655 821 q 789 745 755 711 q 1015 824 867 823 q 1247 728 1163 824 q 1331 465 1331 632 q 1329 364 1331 413 l 831 364 q 884 185 833 250 q 1041 120 935 120 q 1154 138 1107 120 q 1247 191 1201 155 l 1292 57 q 1025 -16 1165 -16 z "},"Š":{"ha":899,"x_min":58,"x_max":845,"o":"m 392 1235 l 205 1630 l 354 1651 l 459 1388 l 563 1651 l 712 1630 l 524 1235 l 392 1235 m 753 878 q 620 935 697 912 q 481 957 543 957 q 384 952 419 957 q 317 933 349 947 q 252 826 252 905 q 280 753 252 779 q 355 710 307 727 l 589 621 q 825 420 775 549 q 845 292 845 368 q 816 154 845 216 q 733 53 787 91 q 444 -23 627 -23 q 86 71 260 -23 l 123 219 q 418 133 269 150 q 474 130 448 130 q 648 273 648 130 q 614 373 648 336 q 520 432 581 410 l 280 528 q 58 811 58 615 q 171 1039 57 964 q 441 1109 277 1109 q 797 1019 644 1109 l 753 878 z "},"š":{"ha":741,"x_min":70,"x_max":681,"o":"m 305 945 l 118 1340 l 267 1361 l 372 1098 l 476 1361 l 625 1340 l 437 945 l 305 945 m 362 120 q 497 225 497 120 q 465 286 498 263 q 400 319 437 307 l 242 380 q 83 517 114 427 q 70 606 70 553 q 94 702 70 658 q 160 772 118 745 q 370 824 243 824 q 532 805 451 824 q 657 752 614 785 l 612 625 q 508 670 576 652 q 378 689 439 689 q 245 601 245 689 q 270 549 245 567 q 328 522 299 528 l 458 473 q 634 369 586 427 q 681 242 681 313 q 657 122 681 171 q 591 43 633 73 q 372 -16 508 -16 q 203 5 286 -16 q 74 61 121 26 l 119 191 q 228 141 155 162 q 362 120 300 120 z "},"Ÿ":{"ha":876,"x_min":-13,"x_max":888,"o":"m 0 0 m 680 1090 l 888 1090 l 535 349 l 535 0 l 338 0 l 338 349 l -13 1090 l 195 1090 l 437 563 l 680 1090 m 331 1349 q 331 1324 331 1349 q 299 1268 331 1300 q 218 1236 267 1236 q 138 1268 169 1236 q 107 1349 107 1299 q 138 1430 107 1398 q 218 1461 170 1461 q 299 1430 267 1461 q 331 1349 331 1398 m 745 1349 q 745 1325 745 1349 q 712 1269 745 1301 q 631 1236 680 1236 q 552 1268 583 1236 q 521 1349 521 1299 q 552 1430 521 1398 q 632 1461 583 1461 q 712 1429 680 1461 q 745 1349 745 1397 z "},"ƒ":{"ha":566,"x_min":31,"x_max":613,"o":"m 376 789 l 376 774 l 576 774 l 573 685 l 372 685 l 355 248 q 327 62 349 138 q 258 -66 304 -14 q 148 -56 218 -66 q 41 -45 77 -45 l 62 37 q 83 56 62 48 q 109 67 105 64 q 153 216 149 117 l 174 685 l 31 685 l 34 774 l 176 774 q 260 1086 184 1000 q 448 1160 325 1160 q 548 1145 497 1160 q 613 1126 598 1130 l 595 987 q 494 1013 530 1013 q 441 1005 459 1013 q 412 979 423 997 q 394 944 401 962 q 383 898 387 926 q 376 789 376 841 z "},"ˆ":{"ha":903,"x_min":214,"x_max":722,"o":"m 534 568 l 722 172 l 572 151 l 467 414 l 363 151 l 214 172 l 401 568 l 534 568 z "},"˚":{"ha":852,"x_min":208,"x_max":645,"o":"m 541 352 q 541 377 541 352 q 508 434 541 401 q 426 467 475 467 q 343 434 376 467 q 311 352 311 401 q 343 270 311 302 q 426 238 376 238 q 508 270 476 238 q 541 352 541 302 m 423 144 q 377 144 423 144 q 269 204 330 144 q 208 353 208 263 q 271 502 208 444 q 428 559 334 559 q 583 501 521 559 q 645 351 645 442 q 581 202 645 259 q 423 144 516 144 z "},"˜":{"ha":975,"x_min":207,"x_max":783,"o":"m 783 359 q 748 211 783 267 q 639 155 713 155 q 526 180 586 155 q 427 232 476 203 q 376 247 397 247 q 336 167 336 247 l 207 167 q 358 379 207 379 q 444 365 413 379 q 504 335 475 350 l 536 319 q 551 311 538 318 q 568 302 563 304 q 583 296 572 300 q 615 289 602 289 q 636 294 629 289 q 645 310 642 299 q 649 359 649 326 l 783 359 z "},"̆":{"ha":748,"x_min":158,"x_max":585,"o":"m 372 1021 q 445 1048 423 1021 q 466 1131 466 1075 l 585 1131 q 532 977 585 1027 q 372 927 479 927 q 158 1131 158 927 l 278 1131 q 300 1048 278 1075 q 372 1021 321 1021 z "},"ກ":{"ha":1027,"x_min":50,"x_max":969,"o":"m 450 591 l 452 562 l 452 239 q 398 64 452 129 q 241 0 345 0 q 52 153 52 0 q 91 252 52 211 q 187 293 130 293 q 199 292 191 292 q 222 289 214 291 l 260 277 l 260 505 q 223 502 236 502 q 98 540 146 502 q 50 638 50 578 q 75 732 50 699 q 241 793 121 793 q 420 697 361 793 q 597 787 530 772 q 665 793 629 793 q 969 473 969 793 l 969 0 l 777 0 l 777 507 q 747 632 776 594 q 635 673 718 673 q 450 591 572 671 m 171 649 q 222 594 177 597 q 260 600 243 594 l 260 631 q 216 696 255 690 q 171 649 171 696 m 222 204 q 172 153 172 204 q 216 100 172 101 q 260 163 260 101 l 260 204 l 222 204 z "},"ຂ":{"ha":893,"x_min":95,"x_max":909,"o":"m 457 793 q 544 791 507 793 q 616 784 580 789 q 682 770 652 779 q 739 749 711 762 q 786 719 766 736 q 822 678 807 701 q 852 579 852 633 q 842 494 852 526 q 817 439 831 463 q 775 395 802 416 q 727 360 749 374 q 669 332 705 347 q 551 292 616 311 l 458 262 q 401 248 427 254 q 357 235 376 242 q 324 221 338 228 q 292 180 293 204 q 309 154 292 159 q 343 152 317 152 q 412 165 368 152 q 489 195 455 179 q 659 238 581 239 q 872 114 780 238 q 909 60 888 92 l 799 -37 q 730 56 756 36 q 651 86 692 86 q 572 77 609 86 q 503 56 534 68 q 441 30 473 42 q 296 0 366 0 q 100 163 100 0 q 161 290 100 243 q 344 374 220 336 q 372 384 363 380 l 439 406 q 477 417 452 410 q 516 429 501 425 q 553 442 531 433 q 588 458 574 450 q 617 478 602 466 q 642 505 633 491 q 662 571 662 538 q 655 620 662 604 q 634 646 648 635 q 602 665 620 657 q 563 675 586 671 q 479 683 522 683 q 418 683 436 683 q 374 681 400 682 q 292 666 326 678 q 315 668 304 668 q 398 630 364 668 q 433 533 433 591 q 387 435 433 474 q 271 395 341 395 q 95 566 95 395 q 256 764 95 711 q 457 793 343 793 m 233 525 q 270 489 251 489 q 300 508 288 489 q 313 551 312 526 q 258 600 313 600 l 223 600 q 220 576 220 587 q 233 525 220 549 z "},"ຄ":{"ha":912,"x_min":79,"x_max":854,"o":"m 465 793 q 787 690 698 793 q 854 473 854 614 l 854 0 l 662 0 l 662 470 q 618 627 662 582 q 465 672 575 672 q 292 636 328 671 q 271 577 271 616 q 298 512 271 537 q 373 488 324 488 l 479 488 l 479 374 l 373 374 q 296 352 320 374 q 271 281 271 330 l 271 277 l 288 282 q 299 285 292 283 q 309 288 306 287 q 318 290 313 289 q 354 292 327 292 q 412 275 381 292 q 480 155 480 239 q 290 0 480 0 q 134 66 189 0 q 79 227 79 132 q 130 372 79 321 q 262 433 181 422 q 132 473 184 433 q 79 585 79 514 q 465 793 79 793 m 315 100 q 360 155 360 100 q 346 191 360 177 q 308 204 331 204 l 271 204 l 271 171 q 280 118 271 136 q 315 100 290 100 z "},"ງ":{"ha":713,"x_min":41,"x_max":675,"o":"m 350 635 q 193 501 350 501 q 82 539 123 501 q 41 644 41 576 q 153 773 42 735 q 290 793 212 793 q 675 424 675 793 l 675 14 q 596 -262 675 -172 q 339 -353 517 -353 q 56 -129 58 -353 l 185 -129 q 222 -220 185 -194 q 332 -246 258 -246 q 413 -230 389 -246 q 449 -198 437 -214 q 467 -163 460 -181 q 476 -119 472 -145 q 482 -12 481 -79 l 482 420 q 471 569 482 531 q 449 627 460 606 q 423 662 438 648 q 337 694 389 692 q 350 635 350 659 m 161 635 q 201 590 161 590 q 248 648 248 590 l 248 693 q 161 635 161 686 z "},"ຈ":{"ha":964,"x_min":26,"x_max":903,"o":"m 254 422 q 254 456 254 422 q 304 530 254 490 q 420 570 354 570 q 523 555 486 570 q 580 515 559 540 q 614 455 600 490 q 634 384 628 421 q 647 305 640 347 q 661 227 654 263 q 724 95 677 142 l 724 458 q 659 625 724 576 q 471 672 597 673 q 236 599 307 672 q 197 488 197 558 l 26 488 q 90 670 27 602 q 252 766 153 739 q 466 793 353 793 q 656 773 578 793 q 789 709 734 753 q 903 424 902 621 l 903 12 l 715 -56 l 685 -38 q 471 292 515 59 l 437 282 q 389 275 411 275 q 292 314 329 275 q 254 422 254 354 m 463 389 q 454 450 463 429 q 422 471 446 471 q 387 456 399 471 q 374 419 374 440 q 382 387 374 399 q 436 364 398 363 l 464 364 q 463 374 463 366 l 463 389 z "},"ຊ":{"ha":885,"x_min":95,"x_max":863,"o":"m 224 600 q 221 576 221 581 q 264 493 223 494 q 313 551 313 493 q 255 600 310 600 l 224 600 m 290 179 q 324 151 292 151 q 407 166 357 151 q 500 199 457 181 q 696 246 618 246 q 863 62 863 246 l 863 -239 l 694 -239 l 694 49 q 686 85 694 77 q 644 98 673 98 q 567 83 614 98 q 479 49 520 68 q 290 0 327 -1 q 287 0 288 0 q 151 41 201 0 q 100 163 100 81 q 168 281 102 239 q 323 348 231 321 q 381 365 343 354 q 437 381 419 376 q 486 397 454 387 q 535 416 518 408 q 576 436 552 424 q 613 461 600 448 q 640 490 626 473 q 664 553 664 518 q 659 605 664 587 q 645 635 654 623 q 621 658 635 648 q 591 674 607 668 q 554 684 575 680 q 459 690 517 690 q 290 663 338 690 l 305 663 q 394 629 356 663 q 433 535 433 595 q 387 434 433 475 q 271 393 341 393 q 95 566 95 393 q 388 790 95 764 q 465 793 426 793 q 853 554 853 793 q 716 352 853 416 q 618 314 673 332 l 462 262 q 425 252 450 258 q 379 240 399 246 q 338 227 359 235 q 290 179 293 209 z "},"ຍ":{"ha":905,"x_min":87,"x_max":861,"o":"m 472 121 q 626 166 583 121 q 669 323 669 212 l 669 793 l 861 793 l 861 321 q 707 41 861 108 q 454 0 614 0 q 87 208 87 0 q 210 347 87 311 q 290 360 245 357 q 144 421 201 370 q 87 554 87 473 q 141 726 87 661 q 298 793 197 793 q 487 637 487 793 q 422 519 487 556 q 343 501 391 501 q 264 538 295 501 q 291 447 264 475 q 380 418 318 418 l 486 418 l 486 305 l 380 305 q 290 262 313 305 q 278 215 278 240 q 286 174 279 189 q 307 150 293 159 q 338 135 321 141 q 378 126 354 129 q 472 121 417 121 m 374 638 q 323 701 374 701 q 277 681 290 701 q 264 623 264 660 l 264 589 l 315 589 q 374 638 374 589 z "},"ດ":{"ha":922,"x_min":87,"x_max":865,"o":"m 671 470 q 628 627 671 583 q 474 672 585 672 q 359 653 401 672 q 297 593 317 635 q 278 477 278 551 l 278 277 l 304 286 q 357 292 323 292 q 422 273 391 292 q 486 149 486 235 q 433 33 486 66 q 304 0 382 0 q 178 33 225 0 q 87 241 87 96 l 87 473 q 233 750 87 681 q 474 793 325 793 q 798 690 707 793 q 865 473 865 613 l 865 0 l 671 0 l 671 470 m 278 163 q 325 100 278 100 q 366 153 366 100 q 352 190 366 176 q 314 203 338 203 l 278 203 l 278 163 z "},"ຕ":{"ha":1126,"x_min":87,"x_max":1069,"o":"m 580 674 q 656 762 602 730 q 789 793 711 793 q 1069 470 1069 793 l 1069 0 l 876 0 l 876 484 q 868 589 876 564 q 852 630 861 615 q 833 652 844 644 q 775 672 806 671 q 726 662 743 672 q 700 637 709 652 q 685 600 690 623 q 676 507 676 562 l 676 378 l 484 378 l 484 481 q 478 585 484 561 q 465 625 472 609 q 448 651 457 642 q 392 672 425 673 q 339 664 359 672 q 307 644 319 656 q 289 609 296 632 q 279 507 279 574 l 279 278 l 306 287 q 352 294 330 294 q 449 253 412 294 q 487 149 487 211 q 296 0 487 0 q 183 29 231 0 q 87 229 87 87 l 87 473 q 155 714 87 634 q 372 793 223 793 q 506 763 452 793 q 580 674 559 732 m 326 100 q 367 153 367 100 q 314 203 366 203 l 279 203 l 279 159 q 326 100 279 100 z "},"ຖ":{"ha":972,"x_min":-3,"x_max":934,"o":"m 345 726 q 570 793 457 793 q 763 759 684 793 q 888 652 843 724 q 934 476 934 580 l 934 -224 l 741 -224 l 741 475 q 699 624 741 576 q 560 672 656 672 q 475 658 511 672 q 392 615 439 644 l 392 277 l 417 286 q 460 291 431 291 q 560 251 521 291 q 599 149 599 210 q 402 0 599 0 q 290 33 336 0 q 199 243 199 96 l 199 520 q 144 516 177 516 q 38 554 79 516 q -3 654 -3 591 q 169 793 -3 793 q 345 726 275 793 m 435 100 q 467 113 455 100 q 479 149 479 127 q 425 203 475 201 l 392 203 l 392 163 q 435 100 399 105 m 199 631 q 157 705 196 705 q 118 662 118 705 q 153 621 118 621 q 199 631 174 621 z "},"ທ":{"ha":1046,"x_min":12,"x_max":993,"o":"m 661 333 q 594 85 661 170 q 380 0 526 0 q 136 115 189 0 q 117 196 117 156 q 131 286 117 236 l 192 507 q 145 501 173 501 q 48 543 85 501 q 12 641 12 585 q 37 731 12 698 q 205 793 83 793 q 369 728 315 793 q 397 659 397 694 q 391 603 397 623 l 302 249 q 298 215 298 222 l 298 207 q 378 120 303 120 q 439 151 420 119 q 464 219 460 184 q 469 328 469 273 l 469 530 q 536 729 469 665 q 741 793 603 793 q 937 715 879 793 q 993 491 993 640 l 993 0 l 800 0 l 800 530 q 791 627 800 606 q 774 656 781 650 q 738 672 759 672 q 705 668 718 672 q 685 654 693 663 q 672 635 677 646 q 665 610 667 625 q 661 547 661 585 l 661 333 m 179 694 q 132 642 132 694 q 193 590 132 590 l 214 590 l 227 632 q 229 649 229 637 q 222 673 229 662 q 179 694 209 694 z "},"ນ":{"ha":1021,"x_min":50,"x_max":976,"o":"m 976 338 q 623 0 976 0 q 440 42 512 0 q 347 169 368 85 q 91 0 307 0 l 91 122 q 257 334 257 123 l 257 517 q 190 502 212 502 q 88 542 126 502 q 50 646 50 581 q 243 793 50 793 q 395 728 341 793 q 449 559 449 663 l 449 336 q 481 176 449 227 q 618 120 517 121 q 750 168 715 120 q 784 313 784 214 l 784 793 l 976 793 l 976 338 m 211 694 q 170 642 170 694 q 227 590 170 590 l 257 590 l 257 631 q 211 694 257 691 z "},"ບ":{"ha":966,"x_min":12,"x_max":913,"o":"m 12 644 q 197 793 12 793 q 335 748 280 793 q 391 626 391 703 q 375 528 391 585 q 355 456 359 472 l 321 322 q 308 237 308 272 q 324 180 308 203 q 368 145 340 157 q 488 120 422 121 q 594 129 553 120 q 663 158 633 137 q 720 308 720 199 l 720 793 l 913 793 l 913 344 q 803 77 913 157 q 497 0 699 0 q 148 148 219 0 q 127 233 127 190 q 140 320 127 275 l 192 507 q 147 501 170 501 q 50 542 87 501 q 12 644 12 583 m 229 645 q 176 694 229 694 q 132 639 132 694 q 196 589 132 589 l 201 589 q 208 589 201 589 l 214 589 l 220 609 q 228 643 228 636 l 229 645 z "},"ປ":{"ha":973,"x_min":12,"x_max":919,"o":"m 308 235 q 508 120 308 120 q 674 167 621 120 q 726 324 726 214 l 726 1026 l 919 1026 l 919 347 q 644 11 919 60 q 510 0 580 0 q 388 7 440 0 q 287 33 335 15 q 203 78 238 51 q 127 243 127 138 q 147 346 127 287 l 193 507 q 146 501 170 501 q 50 542 87 501 q 12 639 12 583 q 38 728 12 694 q 203 793 87 793 q 337 748 284 793 q 391 625 391 703 q 385 568 391 589 q 372 521 373 532 l 321 322 q 308 235 308 272 m 229 648 q 181 694 229 694 l 180 693 q 132 639 132 693 q 192 589 132 589 l 214 589 l 222 616 q 229 648 224 623 z "},"ຜ":{"ha":1133,"x_min":102,"x_max":1128,"o":"m 845 631 q 800 694 845 692 q 760 663 770 694 q 757 643 757 654 q 818 590 757 590 l 832 590 q 845 591 842 590 l 845 631 m 325 590 q 383 644 383 593 q 340 694 383 694 q 294 631 294 691 l 294 590 l 325 590 m 845 507 q 768 502 822 502 q 676 542 715 502 q 637 647 637 582 q 830 793 637 793 q 1000 702 947 793 q 1009 774 1009 726 l 1009 885 l 1128 885 l 1128 774 q 1063 616 1128 682 q 1034 587 1050 602 q 1037 528 1037 534 l 1037 347 q 783 0 1037 0 q 567 155 596 0 q 353 0 538 0 q 102 347 102 0 l 102 549 q 192 762 102 701 q 320 793 239 793 q 452 759 401 793 q 503 653 503 724 q 464 542 503 583 q 362 502 425 502 q 294 515 326 502 l 294 291 q 304 182 294 205 q 321 146 312 160 q 380 120 340 121 q 473 291 473 120 l 473 399 l 665 399 l 665 292 q 758 120 665 120 q 844 237 834 120 q 845 290 845 259 l 845 507 z "},"ຝ":{"ha":1118,"x_min":102,"x_max":1082,"o":"m 294 291 q 301 193 294 215 q 316 157 309 170 q 334 137 323 145 q 389 120 357 119 q 439 129 420 120 q 469 151 458 137 q 487 189 480 165 q 497 291 498 226 l 497 399 l 690 399 l 690 291 q 718 152 690 190 q 787 120 741 119 q 846 137 829 120 q 871 169 863 154 q 882 203 878 183 q 890 291 890 240 l 890 1026 l 1082 1026 l 1082 347 q 903 11 1082 60 q 815 0 864 0 q 664 38 716 0 q 592 155 612 76 q 527 40 578 80 q 394 0 476 0 q 255 23 311 0 q 165 93 199 47 q 102 347 102 181 l 102 556 q 193 762 102 699 q 303 793 239 793 q 502 648 502 793 q 464 542 502 583 q 362 502 427 502 q 294 516 343 502 l 294 291 m 382 646 q 371 680 382 667 q 340 694 359 694 q 294 631 294 694 l 294 590 l 323 590 q 382 646 379 597 z "},"ພ":{"ha":1090,"x_min":12,"x_max":1044,"o":"m 12 644 q 194 793 12 793 q 363 720 308 793 q 391 633 391 684 q 382 568 391 618 l 317 310 q 308 221 308 246 q 382 120 308 121 q 468 184 452 120 q 477 276 477 218 l 477 793 l 670 793 l 670 276 q 717 132 670 159 q 761 120 736 121 q 803 128 787 120 q 828 149 819 136 q 843 183 838 162 q 852 275 852 217 l 852 793 l 1044 793 l 1044 347 q 789 0 1044 0 q 573 166 608 0 q 506 43 560 85 q 349 0 451 0 q 187 58 248 0 q 127 224 127 116 q 140 319 127 276 l 191 507 q 146 501 168 501 q 49 542 86 501 q 12 644 12 583 m 222 621 l 228 648 q 178 694 228 694 q 132 643 134 690 q 146 602 132 614 q 193 589 161 589 l 214 589 l 222 621 z "},"ຟ":{"ha":1087,"x_min":12,"x_max":1033,"o":"m 779 0 q 562 166 594 0 q 353 0 530 5 l 347 0 q 174 57 231 1 q 117 228 117 113 q 132 325 117 273 l 187 528 q 129 519 167 519 q 65 536 92 519 q 12 652 12 570 q 37 734 12 701 q 202 793 83 793 q 359 734 307 793 q 386 665 386 703 q 371 566 386 628 l 312 324 q 297 233 297 264 q 374 120 297 120 q 458 184 441 120 q 467 276 468 219 l 467 793 l 659 793 l 659 275 q 686 149 659 181 q 754 120 709 120 q 812 142 795 120 q 836 193 832 167 q 841 276 841 234 l 841 1027 l 1033 1027 l 1033 347 q 779 0 1033 0 m 172 703 q 121 652 124 696 q 140 607 121 617 q 206 597 159 597 l 212 613 l 221 656 l 221 661 q 172 703 220 703 z "},"ມ":{"ha":1196,"x_min":26,"x_max":1135,"o":"m 604 343 q 690 135 604 175 q 769 120 723 120 q 904 167 864 120 q 943 315 943 214 l 943 793 l 1135 793 l 1135 344 q 782 0 1135 0 q 600 43 673 0 q 506 170 527 87 q 410 45 487 90 q 227 0 334 0 q 41 84 84 0 q 26 166 26 115 q 67 255 26 217 q 179 292 109 292 q 292 260 249 292 q 334 161 334 228 q 327 119 334 134 q 411 338 411 172 l 411 793 l 604 793 l 604 343 m 189 203 q 158 190 169 203 q 146 158 146 177 q 153 129 146 140 q 172 113 159 118 q 233 100 193 103 l 233 153 q 189 203 227 203 z "},"ຢ":{"ha":918,"x_min":95,"x_max":904,"o":"m 299 263 q 287 216 287 241 q 295 175 287 191 q 318 149 302 159 q 349 134 333 140 q 391 125 366 127 q 481 121 428 121 q 571 130 534 121 q 631 160 607 138 q 677 304 677 200 l 677 771 q 723 1070 677 958 l 904 1070 q 869 755 869 926 l 869 321 q 689 30 868 91 q 480 0 603 0 q 213 40 302 0 q 95 208 95 93 q 146 320 95 280 q 277 360 198 360 q 146 419 197 368 q 95 566 95 471 q 150 727 95 661 q 305 793 205 793 q 495 637 495 793 q 455 538 495 576 q 353 500 415 500 q 312 508 332 500 q 287 516 292 515 l 287 512 q 312 441 287 463 q 388 418 337 418 l 494 418 l 494 305 l 388 305 q 299 263 323 305 m 323 589 q 361 602 347 589 q 375 638 375 615 q 330 694 375 694 q 287 623 287 693 l 287 589 l 323 589 z "},"ຣ":{"ha":914,"x_min":64,"x_max":869,"o":"m 64 236 q 237 407 64 407 q 355 368 309 407 q 401 269 401 329 q 367 173 401 210 q 280 136 332 136 l 257 140 q 459 118 308 118 q 654 169 591 118 q 690 243 690 199 q 660 319 690 288 q 582 368 629 350 q 473 400 534 385 q 358 423 414 414 q 180 465 218 446 q 121 505 141 486 q 75 627 75 549 q 293 785 75 761 q 422 793 362 793 q 513 792 482 793 q 580 788 545 791 q 643 780 615 785 q 698 766 670 774 q 747 745 726 757 q 787 715 768 732 q 818 676 806 698 q 844 564 844 629 l 844 549 l 671 549 l 671 567 q 661 614 671 600 q 644 636 651 628 q 624 649 637 644 q 602 659 612 654 q 575 665 592 663 q 547 669 558 667 q 515 671 535 671 q 484 672 496 672 l 406 672 q 279 650 305 672 q 268 626 267 640 q 276 601 268 612 q 299 583 284 590 q 331 569 314 575 q 370 559 348 564 q 411 553 393 555 q 450 547 429 549 q 506 538 484 542 q 549 530 527 534 q 609 517 570 526 q 669 500 648 508 q 722 480 690 493 q 771 454 753 467 q 810 420 789 440 q 842 377 831 400 q 869 262 869 321 q 846 158 869 203 q 785 84 823 113 q 694 35 747 54 q 466 0 597 0 q 194 50 305 0 q 100 123 137 76 q 64 236 64 170 m 282 253 q 238 309 282 308 q 191 227 191 308 q 194 203 191 225 l 220 203 q 282 253 282 205 z "},"ລ":{"ha":931,"x_min":79,"x_max":895,"o":"m 221 203 l 221 187 q 239 100 221 117 q 269 93 248 92 q 306 109 291 93 q 322 153 321 125 q 262 203 322 199 l 221 203 m 703 220 l 703 262 l 703 448 q 655 620 703 572 q 487 672 608 667 q 329 639 385 672 q 263 529 273 606 l 108 529 q 267 758 108 696 q 473 793 358 793 q 661 776 589 793 q 787 720 734 758 q 895 457 895 642 l 895 304 q 831 54 895 125 q 692 0 783 1 q 591 34 631 0 q 533 102 552 68 q 500 162 514 137 q 475 210 487 186 q 447 253 463 233 q 414 290 431 274 q 316 323 375 323 q 232 266 256 323 q 296 277 256 277 q 391 237 355 272 q 427 139 427 202 q 379 38 427 77 q 265 0 332 0 q 160 24 199 0 q 79 208 79 76 q 110 311 79 266 q 195 382 140 357 q 309 407 250 407 q 413 393 369 407 q 489 356 457 378 q 547 306 520 333 q 593 251 574 278 q 625 201 612 224 q 666 149 659 153 q 683 153 676 149 q 694 164 690 157 q 700 179 697 172 q 703 220 703 189 z "},"ວ":{"ha":888,"x_min":64,"x_max":859,"o":"m 64 223 q 64 266 64 223 q 109 353 64 309 q 232 398 153 398 q 359 360 311 398 q 407 260 407 321 q 373 163 407 199 q 286 128 338 128 l 248 134 q 435 109 314 109 q 611 161 556 109 q 666 328 666 213 l 666 448 q 622 621 666 571 q 467 672 577 671 q 307 640 357 672 q 245 530 256 608 l 89 530 q 373 789 88 758 q 474 793 412 793 q 597 783 536 793 q 708 748 659 772 q 791 685 758 724 q 859 457 859 604 l 859 323 q 621 19 859 81 q 479 0 548 0 q 365 5 410 0 q 275 19 320 9 q 193 47 230 29 q 126 88 155 64 q 64 223 64 138 m 218 194 q 287 243 287 194 q 241 300 287 300 q 195 218 195 298 q 197 194 195 199 l 218 194 z "},"ສ":{"ha":965,"x_min":79,"x_max":961,"o":"m 779 16 q 707 0 745 0 q 641 9 669 0 q 593 33 612 18 q 556 69 573 49 q 526 113 538 90 q 501 160 514 136 q 477 208 488 184 q 451 251 466 231 q 419 287 435 271 q 340 320 370 317 q 229 267 256 320 q 299 277 269 277 q 361 260 330 277 q 428 151 428 225 q 377 38 428 77 q 260 0 327 0 q 156 27 195 0 q 79 202 80 81 q 145 347 79 295 q 315 399 210 399 q 483 354 418 400 q 552 292 528 322 q 618 202 606 224 q 633 174 629 180 q 640 165 637 168 q 647 158 643 162 q 655 152 651 155 q 673 146 663 147 q 703 213 703 146 l 703 475 q 578 451 656 456 q 471 446 501 446 q 408 448 441 446 q 339 452 375 449 q 272 460 302 455 q 213 474 242 466 q 162 495 184 483 q 123 524 140 507 q 88 607 88 556 q 480 793 88 793 q 807 688 739 793 q 822 786 822 738 l 822 842 l 961 842 l 961 791 q 890 578 961 642 q 895 418 895 542 l 895 288 q 779 16 895 70 m 228 118 q 231 112 228 118 q 242 99 234 105 q 271 93 250 93 q 307 109 292 93 q 323 153 323 125 q 247 203 320 202 l 221 203 l 221 190 q 228 118 221 131 m 713 595 q 480 672 708 672 q 320 655 359 672 q 287 631 292 643 q 281 608 281 618 q 285 590 281 597 q 298 577 290 582 q 318 568 307 572 q 343 562 330 564 q 372 558 357 559 q 402 556 387 556 q 433 555 418 555 q 447 555 440 555 q 461 555 454 555 q 480 555 475 555 q 713 595 633 555 z "},"ຫ":{"ha":1333,"x_min":12,"x_max":1286,"o":"m 149 502 q 49 542 86 502 q 12 648 12 583 q 205 793 12 793 q 369 728 315 793 q 397 651 397 694 q 380 557 397 608 l 311 289 q 304 240 304 261 q 350 150 304 180 q 477 120 395 120 q 600 162 559 120 q 640 298 640 205 l 640 511 q 585 502 619 502 q 474 541 513 502 q 435 640 435 579 q 459 732 435 700 q 625 793 505 793 q 803 710 746 793 q 949 788 889 775 q 1000 793 973 793 q 1286 476 1286 793 l 1286 0 l 1094 0 l 1094 473 q 1078 618 1094 589 q 1031 665 1057 658 q 979 672 1005 672 q 926 664 952 672 q 865 637 895 654 q 832 618 835 619 l 832 300 q 451 0 832 0 q 232 53 326 0 q 123 215 134 109 q 123 219 123 218 l 123 230 q 132 289 123 255 l 193 510 q 149 502 184 509 m 229 648 q 214 681 229 668 q 178 694 199 694 q 132 642 132 692 q 195 590 134 590 l 214 590 q 229 648 227 648 m 640 635 q 631 684 640 667 q 601 700 623 700 q 555 654 556 700 q 599 606 555 606 q 640 613 626 606 l 640 635 z "},"ອ":{"ha":890,"x_min":59,"x_max":875,"o":"m 256 612 q 256 602 256 612 q 263 582 256 593 q 285 565 271 571 q 316 555 298 559 q 354 551 334 552 q 421 548 399 549 q 429 548 425 548 q 458 549 451 549 q 678 607 676 549 q 444 672 678 672 q 277 647 313 672 q 256 612 256 631 m 59 219 q 59 259 59 219 q 103 342 59 300 q 224 384 147 384 q 347 352 300 384 q 393 266 393 321 q 361 177 393 211 q 254 129 330 144 q 440 106 309 106 q 542 116 511 106 q 591 136 573 127 q 622 160 608 145 q 645 190 635 175 q 661 228 654 205 q 672 272 667 250 q 678 323 676 293 q 682 444 682 372 l 682 486 q 503 417 637 431 q 453 414 476 414 q 64 607 64 414 q 444 793 64 793 q 804 693 709 793 q 875 490 875 618 l 875 349 q 465 0 875 0 q 123 88 236 0 q 59 219 60 138 m 239 300 q 191 279 207 300 q 175 226 175 258 q 179 194 175 224 q 252 204 227 194 q 280 243 278 214 q 239 300 280 300 z "},"ຮ":{"ha":871,"x_min":64,"x_max":831,"o":"m 287 243 q 272 288 287 277 q 243 299 257 299 q 195 218 195 298 q 197 195 195 206 l 227 195 q 287 243 287 195 m 558 603 q 517 613 558 603 q 399 645 476 624 q 289 666 323 666 q 256 642 256 666 q 267 615 256 625 q 287 599 278 605 q 308 587 295 593 q 332 576 321 581 q 358 567 342 572 q 384 558 374 562 q 433 543 421 546 l 564 500 q 709 442 673 465 q 766 399 745 418 q 800 357 787 378 q 830 252 830 307 q 817 159 831 197 q 777 95 803 121 q 715 50 750 68 q 635 20 681 31 q 465 0 550 0 q 328 6 379 0 q 227 28 276 13 q 142 70 178 45 q 64 218 65 125 q 239 398 64 398 q 359 359 311 398 q 407 259 407 320 q 370 163 407 198 q 277 129 334 129 l 245 134 q 444 109 309 109 q 638 231 633 109 q 482 376 635 327 q 407 400 420 395 l 366 414 q 328 427 353 419 q 289 440 304 435 q 250 453 273 445 q 213 469 227 462 q 179 487 198 476 q 147 509 159 498 q 122 534 135 519 q 102 565 109 549 q 85 644 85 602 q 133 751 85 709 q 239 793 180 793 q 355 781 298 793 q 454 753 411 768 q 650 711 570 712 q 681 722 668 711 q 693 749 693 732 l 693 793 l 831 793 l 831 749 q 686 582 831 582 q 558 603 640 582 z "},"ຯ":{"ha":967,"x_min":34,"x_max":981,"o":"m 425 810 q 448 801 425 810 q 501 754 471 792 q 530 665 530 715 q 512 573 530 614 q 457 507 493 532 q 371 481 421 481 q 287 512 320 481 q 254 597 254 543 q 259 629 254 600 q 268 681 264 659 q 213 551 213 652 q 285 422 213 458 q 360 404 319 404 q 438 416 401 404 q 505 445 474 427 q 566 490 535 463 q 620 544 597 517 q 668 604 644 570 q 743 718 705 654 l 777 776 l 981 692 l 561 -293 l 402 -227 l 711 505 l 688 469 q 361 272 562 272 q 130 339 221 273 q 34 540 34 410 q 71 689 34 623 q 173 792 107 755 q 308 829 239 829 q 425 810 378 829 m 340 621 q 381 583 340 583 q 418 632 417 585 q 341 691 416 684 q 340 631 340 640 l 340 621 z "},"ະ":{"ha":847,"x_min":31,"x_max":768,"o":"m 31 2 m 245 175 q 231 208 245 196 q 195 219 216 219 q 164 214 175 219 q 140 176 140 204 q 201 130 141 130 l 245 130 l 245 175 m 189 326 q 285 296 245 326 q 324 216 324 267 q 315 170 324 188 l 298 130 l 447 130 q 583 155 551 130 q 617 209 611 176 q 623 275 623 242 l 768 275 q 431 2 768 2 l 313 2 q 161 14 203 2 q 98 38 120 26 q 62 66 77 50 q 31 155 31 100 q 189 326 31 326 m 245 574 q 231 606 245 595 q 195 618 216 618 q 164 613 175 618 q 140 574 140 603 q 201 529 141 529 l 245 529 l 245 574 m 189 724 q 285 695 245 724 q 324 614 324 665 q 315 568 324 587 l 298 529 l 447 529 q 583 553 551 529 q 617 608 611 575 q 623 673 623 641 l 768 673 q 431 401 768 401 l 313 401 q 161 413 203 401 q 98 437 120 425 q 62 465 77 449 q 31 553 31 498 q 189 724 31 724 z "},"ັ":{"ha":1,"x_min":-837,"x_max":-100,"o":"m -623 1019 q -637 1051 -623 1040 q -673 1063 -652 1063 q -704 1058 -693 1063 q -728 1019 -728 1048 q -667 974 -727 974 l -623 974 l -623 1019 m -680 1169 q -583 1140 -623 1169 q -544 1059 -544 1110 q -553 1013 -544 1031 l -570 974 l -421 974 q -286 998 -317 974 q -251 1053 -257 1020 q -245 1118 -245 1086 l -100 1118 q -437 846 -100 846 l -555 846 q -707 858 -665 846 q -770 882 -748 870 q -806 909 -791 894 q -837 998 -837 943 q -680 1169 -837 1169 z "},"າ":{"ha":649,"x_min":39,"x_max":592,"o":"m 205 480 q 85 517 131 480 q 39 623 39 553 q 180 785 39 753 q 273 795 222 795 q 511 729 431 795 q 592 521 592 664 l 592 0 l 400 0 l 400 555 q 385 646 400 615 q 328 687 370 676 l 339 610 q 205 480 339 480 m 159 635 q 216 582 159 582 q 263 659 263 582 l 263 692 q 184 683 198 692 q 159 635 159 665 z "},"ຳ":{"ha":692,"x_min":-445,"x_max":608,"o":"m 222 494 q 101 530 146 494 q 56 636 56 566 q 195 799 56 766 q 290 808 237 808 q 527 744 446 808 q 608 536 608 679 l 608 0 l 416 0 l 416 568 q 401 660 416 629 q 344 701 386 690 l 356 625 q 222 494 356 494 m 175 650 q 233 597 175 597 q 279 673 277 597 l 279 707 q 199 697 212 707 q 175 650 175 679 m -203 1166 q -184 1156 -203 1166 q -145 1110 -166 1146 q -124 1018 -124 1074 q -170 918 -124 962 q -272 874 -216 874 q -365 894 -328 874 q -424 950 -402 914 q -445 1029 -445 986 q -398 1141 -445 1096 q -296 1185 -352 1185 q -203 1166 -239 1185 m -348 1031 q -348 1018 -348 1031 q -330 987 -348 1005 q -284 968 -311 968 q -238 985 -256 968 q -220 1030 -220 1002 q -238 1076 -220 1058 q -284 1094 -257 1094 q -330 1076 -312 1094 q -348 1031 -348 1058 z "},"ິ":{"ha":2,"x_min":-781,"x_max":-123,"o":"m -633 1182 q -611 1190 -633 1182 q -545 1203 -589 1197 q -451 1208 -500 1208 q -357 1203 -401 1208 q -269 1183 -312 1197 q -194 1147 -225 1169 q -123 1013 -123 1099 q -267 854 -123 886 q -361 846 -309 845 l -391 846 l -391 952 l -359 952 q -269 1013 -273 957 q -295 1070 -269 1053 q -354 1093 -323 1088 q -440 1098 -402 1098 q -499 1097 -479 1098 q -542 1093 -519 1096 q -580 1084 -564 1090 q -609 1069 -595 1078 q -636 1013 -635 1050 q -543 952 -635 952 l -511 952 l -511 846 l -542 846 q -762 935 -711 846 q -781 1012 -781 968 q -761 1090 -781 1056 q -709 1146 -741 1124 q -633 1182 -677 1168 z "},"ີ":{"ha":2,"x_min":-894,"x_max":-128,"o":"m -657 1202 q -635 1205 -657 1202 q -564 1208 -612 1208 q -472 1203 -516 1208 q -384 1183 -427 1197 q -309 1148 -340 1169 q -237 1019 -238 1101 q -274 952 -238 977 l -128 952 l -128 846 l -503 846 l -503 952 l -473 952 q -382 1013 -382 952 q -564 1098 -382 1098 q -659 1093 -637 1098 q -693 1084 -680 1088 q -717 1074 -707 1080 q -734 1059 -726 1067 q -749 1013 -749 1043 q -657 952 -749 952 l -625 952 l -625 846 l -655 846 q -875 935 -824 846 q -894 1012 -894 968 q -874 1090 -894 1056 q -822 1146 -854 1124 q -746 1182 -790 1168 q -657 1202 -703 1196 z "},"ຶ":{"ha":2,"x_min":-781,"x_max":-123,"o":"m -419 1098 q -449 1098 -419 1098 q -499 1097 -479 1098 q -542 1093 -519 1096 q -580 1084 -564 1090 q -609 1069 -595 1078 q -636 1013 -635 1050 q -543 951 -635 953 l -535 951 l -535 846 l -542 846 q -762 935 -711 846 q -781 1012 -781 968 q -761 1090 -781 1056 q -709 1146 -741 1124 q -633 1183 -677 1168 q -481 1208 -515 1209 q -478 1208 -479 1208 q -357 1203 -401 1208 q -269 1183 -312 1197 q -194 1147 -225 1169 q -123 1013 -123 1099 q -267 854 -123 886 q -361 846 -309 845 l -366 846 l -366 951 l -359 951 q -269 1013 -271 956 q -324 1085 -269 1063 q -419 1098 -359 1099 m -404 960 q -408 956 -404 960 q -424 949 -412 953 q -451 945 -435 945 q -481 952 -467 945 q -513 999 -513 966 q -480 1043 -513 1029 q -444 1049 -466 1048 q -404 1035 -422 1049 q -385 1004 -385 1021 q -390 977 -385 987 q -404 960 -395 966 z "},"ື":{"ha":2,"x_min":-894,"x_max":-127,"o":"m -564 1098 q -680 1089 -655 1098 q -719 1071 -704 1080 q -749 1013 -747 1053 q -657 952 -749 952 l -649 952 l -649 846 l -655 846 q -875 935 -824 846 q -894 1012 -894 968 q -874 1090 -894 1056 q -822 1146 -854 1124 q -746 1182 -789 1168 q -591 1208 -665 1208 q -472 1203 -517 1208 q -384 1183 -427 1197 q -308 1148 -340 1169 q -236 1019 -236 1101 q -273 951 -236 974 l -127 951 l -127 846 l -479 846 l -479 952 l -473 952 q -406 966 -429 952 q -382 1013 -382 979 q -564 1098 -382 1098 m -627 999 q -564 1049 -623 1049 q -518 1035 -537 1048 q -500 1000 -500 1022 q -519 959 -500 974 q -564 945 -537 945 q -608 960 -590 945 q -627 999 -627 975 z "},"ຸ":{"ha":1,"x_min":-376,"x_max":-83,"o":"m -282 -267 q -376 -168 -376 -266 q -338 -90 -376 -117 q -235 -62 -300 -62 q -126 -92 -169 -62 q -83 -181 -83 -123 q -103 -273 -83 -237 q -137 -331 -122 -310 q -171 -372 -152 -351 q -243 -436 -206 -408 l -320 -369 q -235 -262 -261 -303 l -255 -264 q -282 -267 -277 -267 m -203 -168 q -246 -131 -203 -131 q -289 -173 -289 -131 q -276 -206 -289 -199 q -251 -214 -262 -214 l -212 -214 q -203 -168 -203 -190 z "},"ູ":{"ha":1,"x_min":-591,"x_max":-94,"o":"m -452 -184 q -485 -194 -471 -184 q -499 -221 -499 -203 q -485 -251 -499 -239 q -450 -263 -471 -263 l -407 -263 l -409 -220 q -423 -197 -409 -206 q -452 -184 -437 -187 m -326 -339 q -267 -393 -326 -386 q -216 -374 -227 -393 q -203 -334 -203 -354 l -203 -102 l -94 -102 l -94 -283 q -132 -433 -94 -385 q -264 -481 -170 -481 q -429 -363 -429 -481 q -427 -339 -429 -355 l -422 -311 q -463 -331 -443 -331 q -554 -303 -518 -331 q -591 -220 -591 -275 q -553 -131 -591 -165 q -463 -97 -515 -97 q -376 -111 -410 -97 q -321 -154 -342 -125 q -301 -216 -301 -184 q -313 -282 -301 -248 q -326 -339 -326 -316 z "},"ົ":{"ha":1,"x_min":-804,"x_max":-74,"o":"m -804 996 q -614 1152 -804 1135 q -528 1156 -576 1156 l -392 1156 q -150 1084 -223 1156 q -74 846 -76 1013 l -218 846 q -228 968 -218 945 q -249 1005 -239 991 q -274 1025 -259 1018 q -360 1040 -308 1040 l -526 1040 l -514 1001 q -507 958 -507 981 q -548 876 -507 907 q -646 846 -589 846 q -804 996 -804 846 m -694 995 q -680 963 -694 975 q -644 951 -667 951 q -589 998 -589 951 l -589 1040 l -631 1040 q -694 995 -691 1034 z "},"ຼ":{"ha":2,"x_min":-908,"x_max":-117,"o":"m -765 -273 q -719 -225 -719 -269 l -719 -166 q -801 -224 -800 -177 q -765 -273 -797 -271 m -248 -147 l -250 -61 l -250 -56 l -117 -56 q -128 -246 -117 -209 q -153 -309 -140 -283 q -186 -350 -167 -336 q -286 -382 -231 -382 q -376 -370 -340 -382 q -439 -337 -412 -357 q -494 -292 -466 -317 q -546 -244 -523 -267 q -654 -168 -602 -189 l -636 -242 q -633 -279 -633 -261 q -667 -357 -633 -330 q -765 -385 -701 -385 q -869 -341 -829 -385 q -908 -220 -908 -296 q -779 -66 -907 -98 q -698 -56 -741 -56 q -614 -70 -655 -56 q -536 -107 -573 -83 q -468 -154 -499 -130 q -402 -205 -437 -177 q -350 -245 -367 -234 q -329 -258 -334 -256 q -308 -260 -323 -260 q -278 -251 -292 -260 q -259 -226 -266 -243 q -248 -147 -248 -197 z "},"ຽ":{"ha":856,"x_min":41,"x_max":871,"o":"m 268 106 q 311 144 311 106 q 299 186 311 177 q 269 195 286 195 q 233 123 233 195 l 233 106 l 268 106 m 421 149 q 294 24 421 24 q 233 31 277 24 q 318 -133 236 -95 q 424 -152 359 -152 q 562 -103 522 -152 q 601 51 601 -54 l 601 251 q 582 391 601 344 q 507 465 563 437 l 304 564 q 272 581 284 574 q 242 597 260 587 q 214 616 224 607 q 191 637 203 625 q 170 662 178 649 q 155 692 162 675 q 142 770 142 725 q 197 910 142 860 q 347 960 253 960 q 477 920 401 959 q 541 886 510 903 q 665 846 616 846 q 729 960 729 846 l 871 960 q 825 780 871 840 q 670 720 779 720 q 555 740 609 720 q 478 770 502 760 q 414 798 454 780 q 361 823 375 817 q 300 773 300 821 q 361 700 300 734 l 646 562 q 727 512 708 532 q 756 479 746 493 q 772 451 766 466 q 784 416 779 435 q 793 325 793 382 l 793 61 q 401 -272 793 -272 q 87 -119 179 -272 q 41 59 41 -43 q 99 222 41 162 q 256 283 157 283 q 421 149 421 283 z "},"ເ":{"ha":505,"x_min":72,"x_max":459,"o":"m 342 259 q 427 223 395 259 q 459 132 459 188 q 286 0 459 0 q 131 61 191 0 q 72 219 72 123 l 72 442 q 151 730 72 651 q 330 793 212 793 q 372 791 357 793 q 391 788 387 789 q 407 785 395 788 q 421 783 418 783 q 455 777 444 780 l 455 647 q 424 653 445 648 q 359 663 372 663 q 326 660 338 663 q 306 652 314 656 q 290 638 297 647 q 279 621 283 629 q 272 599 275 612 q 267 575 269 585 q 264 548 265 565 q 263 490 263 514 l 263 246 q 342 259 321 259 m 264 167 q 301 87 263 87 q 340 133 339 87 q 296 177 340 177 l 264 177 l 264 167 z "},"ແ":{"ha":926,"x_min":83,"x_max":890,"o":"m 83 0 m 353 259 q 438 223 406 259 q 470 132 470 188 q 296 0 470 0 q 142 61 201 0 q 83 219 83 123 l 83 442 q 161 730 83 651 q 340 793 223 793 q 383 791 368 793 q 402 788 398 789 q 418 785 406 788 q 432 783 429 783 q 466 777 455 780 l 466 647 q 435 653 456 648 q 370 663 383 663 q 337 660 349 663 q 316 652 325 656 q 301 638 308 647 q 290 621 294 629 q 282 599 286 612 q 278 575 279 585 q 275 548 276 565 q 274 490 274 514 l 274 246 q 353 259 332 259 m 275 167 q 312 87 274 87 q 351 133 350 87 q 307 177 351 177 l 275 177 l 275 167 m 773 259 q 858 223 826 259 q 890 132 890 188 q 717 0 890 0 q 563 61 622 0 q 503 219 503 123 l 503 442 q 582 730 503 651 q 761 793 644 793 q 804 791 789 793 q 822 788 819 789 q 838 785 826 788 q 852 783 850 783 q 886 777 876 780 l 886 647 q 855 653 876 648 q 791 663 804 663 q 757 660 769 663 q 737 652 745 656 q 722 638 728 647 q 710 621 715 629 q 703 599 706 612 q 698 575 700 585 q 696 548 696 565 q 694 490 694 514 l 694 246 q 773 259 753 259 m 695 167 q 732 87 694 87 q 771 133 770 87 q 727 177 771 177 l 695 177 l 695 167 z "},"ໂ":{"ha":553,"x_min":-95,"x_max":540,"o":"m 370 153 q 320 203 370 203 l 283 203 l 283 165 q 292 116 283 133 q 324 100 301 100 q 358 114 347 100 q 370 153 370 129 m 441 34 q 427 26 441 34 q 378 8 413 17 q 295 0 342 0 q 207 18 247 0 q 141 71 166 37 q 92 250 92 138 l 92 718 q 85 853 92 829 q 71 895 78 876 q 24 956 58 927 l -1 979 q -72 1051 -58 1024 q -92 1107 -90 1086 q -95 1158 -95 1128 q -81 1221 -95 1187 q -45 1281 -68 1255 q 78 1339 7 1339 q 160 1330 130 1339 q 206 1315 190 1320 q 241 1297 222 1309 q 271 1277 260 1284 q 301 1253 283 1269 q 328 1229 319 1237 q 356 1202 336 1221 q 383 1175 375 1183 l 540 1026 l 452 911 l 358 1004 q 221 1125 298 1061 q 153 1179 175 1171 q 113 1186 131 1186 q 82 1170 95 1186 q 70 1140 70 1154 q 71 1120 70 1125 q 76 1108 73 1114 q 83 1098 79 1103 q 92 1088 86 1094 q 101 1080 97 1083 q 111 1070 104 1076 q 120 1062 117 1065 l 174 1017 q 238 945 215 981 q 283 733 283 875 l 283 276 q 363 292 345 292 q 463 252 424 292 q 501 160 501 211 q 485 81 501 110 q 441 34 469 52 z "},"ໃ":{"ha":635,"x_min":-134,"x_max":634,"o":"m 332 168 q 375 100 332 100 q 420 153 420 100 q 406 191 420 178 q 367 204 392 204 l 332 204 l 332 168 m 141 1006 q 222 1073 222 1006 q 201 1135 222 1102 q 159 1177 181 1168 l 288 1177 q 342 1075 342 1124 q 326 998 342 1029 q 281 947 309 967 q 151 906 221 906 q 32 920 80 906 q -53 959 -16 933 q -134 1118 -134 1014 q 245 1388 -134 1388 q 564 1294 473 1388 q 634 1090 633 1223 q 515 830 634 941 q 443 768 481 799 q 390 725 404 737 q 366 700 376 713 q 350 670 356 687 q 340 639 344 653 q 335 600 336 624 q 332 507 332 565 l 332 275 q 413 292 391 292 q 513 251 473 292 q 552 160 552 210 q 536 80 552 110 q 492 34 521 51 q 350 0 436 0 q 140 248 140 0 l 140 532 q 158 705 140 646 q 233 808 176 765 l 341 894 q 463 1042 438 968 q 473 1109 473 1074 q 247 1255 473 1255 q 20 1110 20 1255 q 141 1006 20 1006 z "},"ໄ":{"ha":595,"x_min":-158,"x_max":557,"o":"m 326 0 q 167 66 220 0 q 114 247 114 133 l 114 659 q 182 901 114 811 q 283 1009 219 951 l 340 1061 q 357 1076 343 1064 q 376 1093 370 1088 q 392 1136 392 1112 q 380 1172 393 1159 q 341 1185 368 1185 q 280 1168 314 1185 q 216 1126 246 1151 q 157 1077 186 1101 q 34 1017 88 1017 q -107 1067 -56 1017 q -158 1205 -158 1118 l -158 1337 l -27 1337 l -27 1198 q -14 1166 -27 1177 q 24 1154 0 1154 q 25 1154 25 1154 q 78 1167 49 1154 q 133 1201 108 1181 q 188 1244 158 1221 q 244 1289 217 1268 q 374 1335 307 1336 q 519 1268 461 1335 q 557 1169 557 1225 q 505 1018 557 1074 l 427 949 q 359 875 384 910 q 306 659 306 797 l 306 273 q 395 292 366 292 q 457 274 425 292 q 525 149 525 235 q 403 8 525 38 q 326 0 368 0 m 348 100 q 393 153 392 100 q 380 189 393 174 q 346 203 368 203 l 306 203 l 306 165 q 315 116 306 132 q 348 100 323 100 z "},"ໆ":{"ha":975,"x_min":57,"x_max":931,"o":"m 504 680 q 701 795 581 795 q 903 663 855 795 q 931 467 931 587 l 931 148 q 728 -241 931 -167 q 555 -268 656 -268 q 258 -124 365 -268 l 304 -75 q 557 -144 435 -144 q 696 -84 656 -144 q 736 71 732 -31 q 738 138 738 100 l 738 528 l 739 587 q 731 651 739 638 q 692 674 717 673 q 661 667 677 674 q 617 635 635 656 q 587 600 598 613 q 564 576 576 587 q 504 552 537 552 q 448 569 469 552 q 413 600 426 587 q 388 626 401 613 q 361 650 374 639 q 290 673 315 672 q 269 666 275 673 q 261 653 264 659 q 256 638 258 648 q 253 622 254 629 q 251 603 252 615 q 249 568 250 578 q 249 553 249 557 q 327 568 299 568 q 387 549 355 568 q 456 425 456 511 q 270 276 456 276 q 115 335 172 276 q 57 492 57 394 q 113 706 57 621 q 290 795 171 795 q 464 718 377 795 q 504 680 488 696 m 258 391 q 290 376 267 376 q 336 428 335 376 q 281 479 335 479 l 249 479 l 249 438 q 258 391 249 406 z "},"່":{"ha":5,"x_min":-406,"x_max":-267,"o":"m -406 954 l -406 1246 l -267 1246 l -267 954 l -406 954 z "},"້":{"ha":1,"x_min":-793,"x_max":-43,"o":"m -649 1215 q -701 1173 -701 1215 q -609 1137 -697 1141 l -609 1146 q -649 1215 -614 1209 m -680 1068 q -702 1068 -680 1068 q -759 1097 -724 1068 q -793 1181 -793 1126 q -754 1270 -793 1236 q -646 1303 -715 1303 q -535 1265 -577 1303 q -493 1155 -493 1227 q -507 1096 -493 1117 q -550 1056 -520 1075 l -569 1046 l -390 1046 q -266 1058 -297 1046 q -222 1083 -235 1070 q -201 1121 -210 1096 q -185 1253 -188 1158 l -43 1253 l -43 1198 q -109 998 -43 1055 q -206 949 -153 959 q -391 933 -289 933 l -769 933 l -769 987 q -732 998 -755 992 q -694 1009 -709 1004 q -661 1023 -678 1015 q -618 1076 -627 1040 q -680 1068 -637 1068 z "},"໊":{"ha":3,"x_min":-720,"x_max":-161,"o":"m -349 1203 q -328 1203 -349 1203 q -271 1172 -307 1203 q -235 1082 -235 1140 q -286 1002 -235 1024 l -161 1002 l -161 939 l -418 939 l -418 1003 q -340 1068 -340 1004 q -390 1116 -340 1116 q -443 1068 -424 1116 l -518 1068 l -524 1084 q -578 1116 -542 1116 q -613 1102 -599 1116 q -627 1068 -627 1088 q -551 1003 -627 1003 l -551 939 q -696 996 -651 939 q -719 1077 -719 1026 q -689 1166 -720 1128 q -607 1203 -658 1203 q -481 1128 -509 1203 q -415 1193 -461 1174 q -349 1203 -391 1203 z "},"໋":{"ha":7,"x_min":-591,"x_max":-345,"o":"m -427 939 l -509 939 l -509 1019 l -591 1019 l -591 1095 l -509 1095 l -509 1177 l -427 1177 l -427 1095 l -345 1095 l -345 1019 l -427 1019 l -427 939 z "},"໌":{"ha":3,"x_min":-545,"x_max":-138,"o":"m -435 1006 q -545 1129 -545 1006 q -380 1261 -545 1261 l -291 1261 q -250 1273 -261 1261 q -238 1315 -238 1284 l -138 1315 q -176 1188 -141 1225 q -298 1151 -210 1151 l -348 1151 l -336 1109 q -333 1085 -333 1104 q -362 1027 -333 1048 q -435 1006 -392 1006 m -433 1078 q -393 1114 -393 1078 l -393 1151 l -417 1151 q -462 1144 -448 1151 q -475 1119 -475 1137 q -470 1095 -475 1103 q -433 1078 -459 1078 z "},"ໍ":{"ha":5,"x_min":-625,"x_max":-304,"o":"m -465 1068 q -421 1085 -438 1068 q -404 1124 -404 1103 q -411 1160 -403 1146 q -459 1190 -436 1185 q -509 1172 -491 1190 q -527 1129 -527 1155 q -509 1086 -527 1103 q -465 1068 -491 1068 m -464 1283 q -430 1283 -464 1283 q -351 1238 -397 1283 q -304 1127 -304 1194 q -351 1017 -304 1061 q -465 972 -397 972 q -578 1017 -532 972 q -625 1127 -625 1061 q -578 1238 -625 1194 q -464 1283 -532 1283 z "},"໐":{"ha":874,"x_min":54,"x_max":825,"o":"m 54 437 q 71 569 54 505 q 121 686 87 633 q 200 777 154 738 q 307 836 246 815 q 439 857 368 857 q 571 836 509 857 q 678 777 632 815 q 758 686 724 738 q 825 434 825 580 q 685 73 825 191 q 439 -8 589 -8 q 151 115 254 -8 q 54 437 54 232 m 208 430 q 222 315 208 369 q 264 220 236 262 q 336 154 292 178 q 439 130 381 130 q 542 154 496 130 q 614 220 587 178 q 671 432 671 305 q 613 633 670 552 q 439 718 553 719 q 264 633 326 719 q 208 430 208 552 z "},"໑":{"ha":937,"x_min":57,"x_max":922,"o":"m 634 433 q 416 277 634 277 q 132 368 239 277 q 57 532 57 431 q 172 777 57 691 q 451 858 282 858 q 860 676 735 858 q 922 454 922 585 q 811 159 922 279 q 537 -1 703 41 q 369 -22 456 -22 l 369 83 q 581 157 488 90 q 711 333 675 227 q 730 449 730 389 q 657 647 730 576 q 456 718 585 718 q 249 532 249 718 q 336 396 249 431 q 326 445 326 429 q 483 576 326 576 q 616 511 578 576 q 634 433 635 479 m 471 487 q 427 437 427 487 l 427 383 q 514 440 514 387 q 471 487 514 486 z "},"໒":{"ha":986,"x_min":64,"x_max":970,"o":"m 569 397 q 504 384 515 393 q 484 342 484 367 q 525 294 488 298 q 569 342 569 294 l 569 397 m 256 309 q 518 120 256 120 q 779 271 779 120 q 705 381 780 349 q 657 395 684 391 q 671 340 671 346 q 511 205 671 205 q 404 242 446 205 q 362 333 362 279 q 383 419 362 386 q 439 473 404 453 q 608 512 509 512 q 896 429 795 511 q 970 264 970 367 q 696 16 970 66 q 520 0 610 0 q 369 10 431 0 q 251 43 307 20 q 155 99 195 66 q 64 294 65 172 q 126 496 64 411 q 275 636 184 578 q 433 733 369 696 q 605 859 553 803 q 651 925 635 891 q 666 1007 666 958 l 810 1007 q 756 802 810 887 q 625 668 707 724 q 487 578 549 615 q 271 388 311 473 q 256 309 256 355 z "},"໓":{"ha":1164,"x_min":3,"x_max":1112,"o":"m 166 203 q 123 155 123 200 q 181 102 123 111 l 211 100 l 211 137 q 166 203 211 203 m 161 292 q 312 161 312 292 q 304 119 312 144 q 389 342 389 170 l 389 793 l 581 793 l 581 347 q 671 136 581 175 q 757 120 707 121 q 886 170 848 120 q 924 321 924 219 l 924 584 q 867 750 924 684 q 736 856 817 808 q 662 898 697 879 q 541 978 572 947 q 500 1031 510 1009 q 491 1086 491 1053 q 545 1227 491 1177 q 692 1278 599 1278 q 817 1245 755 1278 q 911 1187 881 1212 q 1004 1114 979 1134 l 1088 1050 l 1008 949 l 922 1014 q 886 1042 910 1023 q 847 1072 861 1061 q 809 1098 832 1082 q 769 1121 787 1113 q 691 1141 726 1141 q 658 1130 672 1141 q 644 1105 644 1118 q 649 1082 644 1091 q 662 1065 655 1072 q 682 1048 669 1057 q 702 1035 694 1040 q 723 1023 709 1031 q 748 1008 736 1015 q 799 979 760 1001 q 863 942 838 957 q 924 903 888 928 q 984 859 960 879 q 1034 808 1008 838 q 1076 749 1061 779 q 1112 597 1111 678 l 1112 337 q 1024 83 1112 165 q 759 0 937 0 q 538 77 617 0 q 488 170 498 117 q 389 45 467 90 q 204 0 311 0 q 42 53 97 0 q 3 156 3 90 q 46 257 3 221 q 161 292 90 292 z "},"໔":{"ha":1000,"x_min":64,"x_max":977,"o":"m 768 545 q 720 492 722 545 l 720 488 q 720 481 720 488 q 722 440 720 475 l 757 440 q 808 492 808 440 q 768 545 808 545 m 528 426 q 528 476 528 426 q 585 585 528 526 q 738 644 643 644 q 879 608 832 644 q 927 492 926 572 q 860 369 927 408 q 794 350 828 350 q 741 359 760 350 q 830 234 769 285 q 977 165 892 182 l 951 -1 l 488 -1 q 85 198 161 -1 q 64 323 64 254 q 70 446 64 393 q 90 542 76 498 q 126 619 103 586 q 261 726 172 686 l 557 864 q 692 981 625 895 q 720 1017 703 994 l 840 918 q 808 873 819 889 q 777 832 798 858 q 741 791 757 807 q 654 731 697 751 l 374 600 q 267 473 286 557 q 255 321 255 420 q 304 171 256 222 q 456 120 353 120 l 743 120 l 707 141 q 583 252 634 183 q 528 426 528 325 z "},"໕":{"ha":1002,"x_min":64,"x_max":979,"o":"m 746 440 q 808 492 808 440 q 768 543 808 543 q 720 476 720 543 q 722 440 720 458 l 746 440 m 453 840 q 405 875 453 875 q 357 833 357 875 q 409 792 357 792 q 440 806 428 792 q 453 840 453 820 m 245 845 q 293 947 245 911 q 412 983 341 983 q 519 949 483 983 q 567 847 555 914 q 622 884 600 862 q 651 913 644 906 q 670 936 658 921 q 687 957 682 951 q 704 979 691 962 q 719 998 716 996 l 839 902 q 654 712 777 771 q 603 693 630 698 q 549 685 576 689 q 505 679 522 682 q 387 604 447 625 q 311 553 338 581 q 256 370 256 498 q 361 137 256 180 q 457 120 400 121 l 744 120 l 709 141 q 528 430 528 250 q 631 618 529 566 q 746 644 680 644 q 928 492 928 644 q 889 391 928 431 q 790 350 850 350 q 741 359 760 350 q 831 233 766 287 q 979 165 897 180 l 952 0 l 441 0 q 171 79 273 0 q 64 321 64 161 q 83 530 64 465 q 125 627 102 595 q 267 729 171 692 l 285 735 q 245 845 245 779 z "},"໖":{"ha":1038,"x_min":79,"x_max":1009,"o":"m 298 590 q 360 644 360 595 q 314 694 360 694 q 272 625 272 692 l 272 590 l 298 590 m 653 1075 q 600 1035 600 1074 q 717 918 600 985 q 772 887 744 902 q 968 670 916 810 q 1009 351 1009 557 l 1009 332 q 926 59 1006 136 q 757 0 865 0 q 539 155 568 0 q 476 40 528 79 q 344 0 423 0 q 215 23 265 0 q 136 92 165 47 q 79 333 80 176 l 79 549 q 172 762 80 701 q 282 794 220 794 q 386 779 344 794 q 454 730 428 764 q 479 639 479 696 q 442 542 479 582 q 340 502 404 502 q 272 517 317 502 l 272 275 q 293 151 272 181 q 358 120 314 120 q 445 291 445 120 l 445 400 l 637 400 l 637 275 q 730 120 637 120 q 789 147 772 120 q 812 205 808 175 q 817 299 817 253 l 817 340 q 810 529 817 487 q 797 600 804 572 q 781 650 791 629 q 758 692 772 671 q 701 755 734 732 q 642 794 668 779 q 595 821 616 809 q 550 848 574 833 q 509 881 526 864 q 475 920 490 898 q 444 1039 444 964 q 499 1163 444 1115 q 644 1212 554 1212 q 878 1120 769 1212 q 923 1082 895 1106 l 1009 1003 l 923 920 l 842 979 q 811 1003 831 987 q 777 1029 791 1019 q 744 1050 763 1039 q 665 1073 705 1073 q 653 1075 658 1073 z "},"໗":{"ha":1017,"x_min":49,"x_max":1000,"o":"m 222 203 q 172 153 172 203 q 214 100 172 102 q 256 130 248 100 q 259 166 259 144 l 259 203 l 222 203 m 217 696 q 170 645 170 696 q 221 594 170 594 q 259 602 224 594 l 259 630 q 217 696 259 693 m 450 594 l 452 563 l 452 239 q 396 65 452 130 q 235 0 339 0 q 52 155 52 0 q 93 255 52 217 q 197 292 133 292 q 259 276 204 292 l 259 505 q 222 502 241 502 q 97 540 146 502 q 49 648 49 578 q 125 771 49 734 q 225 793 170 793 q 315 782 279 793 q 420 699 376 762 q 602 787 530 772 q 673 793 636 793 q 968 472 968 793 l 968 119 q 1000 -115 968 10 l 810 -115 q 777 110 777 -11 l 777 475 q 767 590 777 563 q 749 631 758 616 q 727 654 741 646 q 666 672 686 671 q 618 670 635 672 q 585 663 602 668 q 557 653 569 657 q 528 640 545 648 q 503 626 511 631 q 475 609 494 621 q 450 594 457 598 z "},"໘":{"ha":1057,"x_min":64,"x_max":1019,"o":"m 827 513 q 818 616 827 596 q 800 648 808 636 q 750 672 782 671 q 700 664 718 672 q 670 643 682 656 q 652 609 659 629 q 640 513 640 574 l 640 377 l 448 377 l 448 513 q 387 667 448 647 q 351 672 372 673 q 311 665 329 672 q 283 644 294 657 q 267 611 273 631 q 256 519 256 577 l 256 278 q 324 293 302 293 q 426 251 386 293 q 465 146 465 210 q 276 0 465 0 q 164 30 213 0 q 64 227 65 90 l 64 462 q 328 793 64 793 q 546 639 514 793 q 759 793 574 793 q 960 707 899 793 q 1019 469 1019 624 l 1019 168 q 983 -14 1019 52 q 876 -121 949 -77 l 744 -201 q 802 -285 793 -247 q 806 -334 806 -304 q 785 -391 806 -363 q 663 -444 743 -444 q 572 -413 608 -444 q 517 -332 535 -382 l 421 -385 q 330 -428 370 -414 q 242 -443 290 -443 q 117 -397 168 -443 q 66 -279 66 -351 q 96 -165 66 -206 q 139 -123 118 -136 q 173 -104 160 -111 q 207 -90 185 -98 q 283 -67 241 -79 l 825 84 q 827 165 827 115 l 827 513 m 345 153 q 290 203 345 203 l 256 203 l 256 168 q 298 100 261 103 q 345 153 342 106 m 530 -193 q 585 -144 565 -155 l 724 -76 q 761 -55 755 -58 l 779 -43 l 285 -194 q 273 -197 283 -195 q 260 -201 263 -200 q 249 -205 257 -202 q 237 -210 240 -208 q 226 -215 233 -212 q 216 -221 219 -218 q 208 -229 213 -224 q 201 -239 202 -235 q 196 -262 195 -252 q 249 -312 202 -309 q 395 -266 311 -312 q 468 -225 427 -248 q 530 -193 509 -203 m 702 -317 q 660 -272 702 -272 q 625 -282 634 -272 q 615 -309 615 -292 q 621 -334 615 -326 q 654 -354 633 -354 q 688 -344 675 -354 q 702 -317 702 -334 z "},"໙":{"ha":1080,"x_min":64,"x_max":1050,"o":"m 303 100 q 346 152 346 100 q 297 203 346 203 l 256 203 l 256 163 q 267 115 256 131 q 303 100 277 100 m 372 672 q 256 534 256 672 l 256 276 q 323 292 290 292 q 427 252 387 292 q 466 142 466 213 q 277 0 466 0 q 119 65 174 0 q 64 239 64 130 l 64 504 q 148 720 64 646 q 381 793 231 793 q 608 722 532 793 q 684 502 684 650 l 684 279 q 726 132 684 161 q 769 120 743 120 q 811 129 794 120 q 836 152 827 138 q 850 187 845 164 q 858 279 859 222 l 858 793 l 1050 793 l 1050 308 q 905 19 1050 72 q 779 0 853 0 q 563 64 633 0 q 492 265 492 127 l 492 531 q 372 672 492 672 z "},"ໜ":{"ha":1839,"x_min":3,"x_max":1800,"o":"m 123 645 q 177 589 123 589 l 208 589 q 220 654 220 646 q 214 673 220 662 q 172 694 203 694 q 127 665 140 693 q 123 645 123 655 m 542 647 q 587 588 542 588 q 635 597 603 588 l 635 616 q 588 694 635 694 q 542 647 542 694 m 1083 473 l 1084 532 q 1075 622 1084 602 q 1059 652 1067 642 q 1015 673 1042 673 q 963 666 987 673 q 914 645 940 659 q 827 590 873 622 l 827 324 q 733 83 827 165 q 475 0 640 0 q 138 147 206 0 q 119 233 119 189 q 177 481 119 277 q 185 511 180 487 q 129 501 149 501 q 37 543 71 501 q 3 640 3 585 q 28 730 3 696 q 187 793 77 793 q 328 750 273 793 q 382 629 382 707 q 362 521 382 600 q 320 359 341 442 q 300 243 300 275 q 309 191 300 210 q 333 158 318 172 q 370 137 349 145 q 469 120 413 121 q 595 164 556 120 q 635 300 635 208 l 635 503 q 575 498 607 498 q 465 540 509 498 q 421 648 421 583 q 538 785 421 754 q 615 793 572 793 q 696 781 658 793 q 807 692 773 757 q 868 732 859 727 q 899 750 877 737 q 935 768 922 764 q 970 781 949 773 q 1055 793 1006 793 q 1144 778 1104 793 q 1208 735 1183 762 q 1248 667 1233 709 q 1275 477 1275 595 l 1275 293 q 1315 161 1275 201 q 1446 120 1354 120 q 1572 157 1537 120 q 1607 289 1607 195 l 1607 793 l 1800 793 l 1800 303 q 1439 0 1800 0 q 1175 165 1231 0 q 863 0 1135 0 l 863 121 q 1030 166 978 121 q 1083 320 1083 211 l 1083 473 z "},"ໝ":{"ha":1980,"x_min":3,"x_max":1857,"o":"m 383 629 q 362 517 383 592 q 321 363 342 442 q 300 240 300 284 q 324 170 300 197 q 464 120 368 121 q 600 168 560 120 q 640 314 640 216 l 640 503 q 578 498 609 498 q 470 540 513 498 q 426 651 426 583 q 477 756 426 719 q 609 793 528 793 q 805 705 737 793 q 873 750 843 733 q 1028 793 949 793 q 1161 772 1106 793 q 1256 708 1217 750 q 1339 462 1339 621 l 1339 195 q 1417 145 1366 170 q 1508 120 1468 120 q 1576 129 1548 120 q 1621 154 1604 138 q 1648 197 1638 170 q 1665 328 1664 243 l 1665 793 l 1857 793 l 1857 330 q 1683 20 1857 80 q 1551 0 1626 0 q 1296 99 1398 0 q 1173 4 1275 23 q 1111 0 1149 0 q 1033 13 1072 0 q 969 47 993 26 q 921 143 921 92 q 944 227 921 195 q 1079 291 990 291 q 1150 277 1117 291 l 1150 458 q 1084 656 1150 612 q 1036 672 1061 673 q 991 668 1011 672 q 957 659 971 664 q 923 644 943 654 q 893 627 903 633 q 862 606 884 621 q 833 587 841 592 l 833 335 q 739 86 833 173 q 476 0 644 0 q 139 146 208 0 q 119 234 119 189 q 127 316 119 279 q 154 411 135 352 q 180 490 174 469 l 185 511 q 125 501 159 501 q 62 521 91 502 q 3 644 4 560 q 115 785 4 755 q 188 793 148 793 q 329 751 275 793 q 383 629 383 709 m 640 621 q 594 694 640 694 q 547 647 549 694 q 562 600 547 611 q 598 588 576 588 q 640 600 619 588 l 640 621 m 220 648 q 172 694 220 694 q 127 665 140 693 q 123 637 123 655 q 139 604 123 618 q 181 589 154 589 l 211 589 l 220 648 m 1048 155 q 1105 92 1048 92 q 1141 112 1133 92 q 1149 182 1149 131 l 1149 195 q 1138 198 1145 196 q 1126 201 1131 200 q 1094 205 1113 205 q 1062 191 1076 205 q 1048 155 1048 178 z "},"​":{"ha":209,"x_min":0,"x_max":0,"o":""},"‌":{"ha":209,"x_min":0,"x_max":0,"o":""},"‍":{"ha":209,"x_min":0,"x_max":0,"o":""},"–":{"ha":772,"x_min":163,"x_max":584,"o":"m 163 540 l 584 540 l 584 391 l 163 391 l 163 540 z "},"—":{"ha":1201,"x_min":100,"x_max":1076,"o":"m 100 540 l 1076 540 l 1076 391 l 100 391 l 100 540 z "},"‘":{"ha":420,"x_min":81,"x_max":326,"o":"m 326 655 l 81 655 l 81 875 q 145 1032 81 977 q 291 1106 199 1079 l 326 1033 q 224 958 240 1001 q 216 909 216 937 l 326 909 l 326 655 z "},"’":{"ha":365,"x_min":55,"x_max":301,"o":"m 55 1090 l 301 1090 l 301 870 q 236 712 301 768 q 90 639 179 664 l 56 712 q 138 757 111 732 q 165 836 165 783 l 55 836 l 55 1090 z "},"‚":{"ha":457,"x_min":125,"x_max":371,"o":"m 125 253 l 371 253 l 371 35 q 307 -124 371 -69 q 160 -197 252 -170 l 125 -124 q 208 -79 181 -104 q 235 0 235 -54 l 125 0 l 125 253 z "},"“":{"ha":745,"x_min":80,"x_max":651,"o":"m 651 647 l 405 647 l 405 867 q 469 1024 404 968 q 616 1098 524 1071 l 650 1025 q 548 949 564 993 q 541 901 540 929 l 651 901 l 651 647 m 326 647 l 80 647 l 80 867 q 145 1024 80 968 q 291 1098 200 1071 l 325 1025 q 224 949 240 991 q 216 901 216 929 l 326 901 l 326 647 z "},"”":{"ha":646,"x_min":55,"x_max":626,"o":"m 55 1090 l 301 1090 l 301 870 q 236 712 301 768 q 90 639 179 664 l 56 712 q 138 757 111 732 q 165 836 165 783 l 55 836 l 55 1090 m 380 1090 l 626 1090 l 626 870 q 562 712 626 768 q 415 639 505 664 l 381 712 q 463 757 436 732 q 490 836 490 783 l 380 836 l 380 1090 z "},"„":{"ha":778,"x_min":132,"x_max":703,"o":"m 132 253 l 378 253 l 378 35 q 313 -124 378 -69 q 167 -197 259 -170 l 133 -124 q 235 -49 217 -95 q 242 0 243 -28 l 132 0 l 132 253 m 457 253 l 703 253 l 703 35 q 557 -175 703 -114 q 492 -197 528 -187 l 458 -124 q 559 -49 541 -95 q 567 0 567 -28 l 457 0 l 457 253 z "},"†":{"ha":566,"x_min":76,"x_max":655,"o":"m 304 692 l 76 692 l 76 787 l 303 787 l 303 996 l 434 996 l 434 787 l 655 787 l 655 692 l 433 692 l 433 0 l 304 0 l 304 692 z "},"‡":{"ha":612,"x_min":137,"x_max":716,"o":"m 137 301 l 364 301 l 364 692 l 137 692 l 137 787 l 364 787 l 364 996 l 495 996 l 495 787 l 716 787 l 716 692 l 494 692 l 494 301 l 715 301 l 715 207 l 494 207 l 494 0 l 364 0 l 364 207 l 137 207 l 137 301 z "},"•":{"ha":879,"x_min":172,"x_max":690,"o":"m 430 716 q 484 716 430 716 q 614 648 538 716 q 690 473 690 579 q 615 299 690 368 q 431 230 541 230 q 247 298 322 230 q 172 472 172 366 q 247 647 172 578 q 430 716 321 716 z "},"…":{"ha":1122,"x_min":77,"x_max":1053,"o":"m 901 0 q 841 64 863 22 q 819 161 819 106 q 879 219 838 197 q 971 242 919 242 q 1030 178 1008 220 q 1053 81 1053 136 q 994 22 1034 45 q 901 0 953 0 m 527 0 q 468 64 490 22 q 446 161 446 106 q 506 219 465 197 q 598 242 546 242 q 657 178 635 220 q 680 81 680 136 q 620 22 661 45 q 527 0 579 0 m 159 0 q 99 64 121 22 q 77 161 77 106 q 137 219 96 197 q 229 242 177 242 q 289 178 266 220 q 311 81 311 136 q 252 22 292 45 q 159 0 211 0 z "},"‰":{"ha":1179,"x_min":0,"x_max":0,"o":""},"‹":{"ha":709,"x_min":77,"x_max":594,"o":"m 77 479 l 594 798 l 594 616 l 244 406 l 594 194 l 594 12 l 77 330 l 77 479 z "},"›":{"ha":684,"x_min":102,"x_max":619,"o":"m 102 12 l 102 194 l 448 406 l 102 616 l 102 798 l 619 479 l 619 330 l 102 12 z "},"€":{"ha":854,"x_min":33,"x_max":814,"o":"m 562 -25 q 213 132 322 -25 q 131 388 144 231 l 41 388 l 41 500 l 127 500 q 130 572 128 558 l 33 572 l 33 684 l 145 684 q 277 954 179 850 q 566 1065 382 1066 q 814 996 718 1065 l 768 855 q 676 897 733 882 q 566 913 620 913 q 473 895 512 913 q 408 844 435 876 q 335 684 358 781 l 602 684 l 602 572 l 315 572 q 312 500 313 561 l 559 500 l 559 388 l 317 388 q 393 199 329 268 q 549 129 457 129 q 738 195 641 129 l 779 50 q 562 -25 704 -25 z "},"₭":{"ha":763,"x_min":63,"x_max":700,"o":"m 260 463 l 557 719 l 697 719 l 391 460 l 675 460 l 675 381 l 389 381 l 700 0 l 572 0 l 264 381 l 260 381 l 260 0 l 153 0 l 153 381 l 63 381 l 63 460 l 153 460 l 153 719 l 260 719 l 260 463 z "},"™":{"ha":1319,"x_min":58,"x_max":1266,"o":"m 713 843 l 713 373 l 596 373 l 596 1008 l 774 1008 l 929 518 l 1088 1008 l 1266 1008 l 1266 373 l 1149 373 l 1149 843 l 1002 373 l 861 373 l 713 843 m 359 913 l 359 373 l 224 373 l 224 913 l 58 913 l 58 1008 l 523 1008 l 523 913 l 359 913 z "},"◌":{"ha":793,"x_min":60,"x_max":734,"o":"m 543 642 l 644 569 l 610 523 l 510 597 l 543 642 m 183 146 l 283 73 l 251 28 l 150 101 l 183 146 m 696 498 l 734 379 l 680 361 l 642 480 l 696 498 m 113 309 l 152 190 l 98 172 l 60 291 l 113 309 m 734 291 l 696 172 l 642 190 l 680 309 l 734 291 m 152 480 l 113 361 l 60 379 l 98 498 l 152 480 m 644 101 l 543 28 l 510 73 l 610 146 l 644 101 m 283 597 l 183 523 l 150 569 l 251 642 l 283 597 m 459 1 l 334 1 l 334 57 l 459 57 l 459 1 m 459 613 l 334 613 l 334 669 l 459 669 l 459 613 z "},"":{"ha":1291,"x_min":0,"x_max":0,"o":""},"ﬀ":{"ha":1107,"x_min":14,"x_max":1095,"o":"m 361 826 l 361 804 l 670 804 q 803 1135 670 1069 q 905 1160 854 1160 q 985 1155 956 1160 q 1046 1140 1013 1149 q 1095 1126 1080 1130 l 1078 985 q 978 1013 1005 1013 q 940 1010 951 1013 q 919 1002 928 1008 q 903 989 910 996 q 891 972 896 983 q 882 952 886 961 q 876 928 878 943 q 872 902 873 913 q 869 874 870 891 q 869 846 869 857 l 869 804 l 1080 804 l 1080 714 l 868 714 l 868 0 l 670 0 l 670 714 l 361 714 l 361 0 l 162 0 l 162 714 l 14 714 l 14 804 l 162 804 q 295 1135 162 1069 q 397 1160 346 1160 q 477 1155 448 1160 q 538 1140 505 1149 q 587 1126 572 1130 l 570 985 q 468 1013 497 1013 q 423 1007 438 1013 q 397 992 408 1001 q 380 967 387 983 q 369 936 373 950 q 363 898 366 922 q 361 826 361 866 z "},"ﬁ":{"ha":1009,"x_min":14,"x_max":897,"o":"m 866 989 q 850 974 866 989 q 785 958 834 958 q 706 989 736 958 q 675 1070 675 1021 q 706 1151 675 1119 q 785 1183 737 1183 q 865 1151 833 1183 q 897 1070 897 1118 q 866 989 897 1021 m 487 1011 q 484 1011 487 1011 q 472 1013 481 1012 q 448 1013 464 1013 q 414 1004 432 1013 q 387 979 397 994 q 370 941 376 964 q 361 844 361 905 l 361 804 l 883 804 l 883 0 l 687 0 l 687 714 l 361 714 l 361 0 l 162 0 l 162 714 l 14 714 l 14 804 l 162 804 q 245 1097 163 1013 q 423 1160 308 1160 q 520 1145 470 1160 q 586 1126 570 1129 l 568 985 q 550 991 560 987 q 531 999 540 996 q 516 1004 522 1002 q 503 1007 511 1005 q 487 1011 494 1010 z "},"ﬂ":{"ha":957,"x_min":14,"x_max":845,"o":"m 646 819 l 649 924 q 628 1000 650 975 q 577 1021 612 1018 q 512 1023 543 1023 q 468 1023 481 1023 q 433 1020 454 1023 q 401 1013 412 1018 q 379 999 391 1008 q 358 942 358 983 l 361 858 l 361 804 l 572 804 l 572 714 l 361 714 l 361 0 l 162 0 l 162 714 l 14 714 l 14 804 l 162 804 q 242 1076 162 992 q 509 1160 323 1160 q 804 1023 741 1160 q 845 770 845 935 l 845 0 l 646 0 l 646 819 z "},"ﬃ":{"ha":1528,"x_min":14,"x_max":1417,"o":"m 1385 989 q 1369 974 1385 989 q 1305 958 1354 958 q 1225 989 1256 958 q 1194 1070 1194 1021 q 1225 1151 1194 1119 q 1305 1183 1257 1183 q 1385 1151 1354 1183 q 1417 1070 1417 1119 q 1385 989 1417 1021 m 361 826 l 361 804 l 680 804 q 760 1097 680 1013 q 936 1160 820 1161 q 1038 1145 986 1160 q 1104 1126 1089 1130 l 1087 985 q 985 1013 1015 1013 q 940 1007 956 1013 q 915 992 925 1001 q 898 967 905 983 q 887 936 890 950 q 881 898 883 922 q 878 838 878 866 l 878 804 l 1402 804 l 1402 0 l 1206 0 l 1206 714 l 878 714 l 878 0 l 680 0 l 680 714 l 361 714 l 361 0 l 162 0 l 162 714 l 14 714 l 14 804 l 162 804 q 243 1097 163 1013 q 418 1160 303 1161 q 520 1145 469 1160 q 587 1126 572 1130 l 570 985 q 468 1013 497 1013 q 423 1007 438 1013 q 397 992 408 1001 q 380 967 387 983 q 369 936 373 950 q 363 898 366 922 q 361 826 361 866 z "},"ﬄ":{"ha":1426,"x_min":14,"x_max":1315,"o":"m 361 826 l 361 804 l 631 804 q 712 1076 631 992 q 977 1160 792 1160 q 1239 1080 1162 1160 q 1315 811 1315 999 l 1315 0 l 1116 0 l 1116 823 l 1118 928 q 1066 1016 1118 1002 q 991 1023 1038 1023 q 928 1023 945 1023 q 888 1018 911 1022 q 854 1005 865 1013 q 827 939 827 984 l 831 838 l 831 804 l 1025 804 l 1025 714 l 830 714 l 830 0 l 631 0 l 631 714 l 361 714 l 361 0 l 162 0 l 162 714 l 14 714 l 14 804 l 162 804 q 295 1135 162 1069 q 418 1160 346 1160 q 488 1152 461 1160 q 537 1137 515 1144 q 571 1126 560 1129 l 554 985 q 468 1013 498 1013 q 423 1007 438 1013 q 397 992 408 1001 q 380 967 387 983 q 369 936 373 950 q 363 898 366 922 q 361 826 361 866 z "}}}
